/* XPM */
static char * floor_xpm[] = {
"64 64 590 2",
"  	c #8C8A73",
". 	c #86846F",
"+ 	c #8C8976",
"@ 	c #84816E",
"# 	c #888370",
"$ 	c #928D79",
"% 	c #89846E",
"& 	c #8D8970",
"* 	c #7E7B72",
"= 	c #454239",
"- 	c #373529",
"; 	c #59574A",
"> 	c #8C8A7B",
", 	c #858374",
"' 	c #868573",
") 	c #8A8977",
"! 	c #888775",
"~ 	c #8C8B79",
"{ 	c #848371",
"] 	c #3F3E2C",
"^ 	c #5D5C4A",
"/ 	c #868372",
"( 	c #888574",
"_ 	c #6E6B5C",
": 	c #625E52",
"< 	c #868276",
"[ 	c #848075",
"} 	c #464237",
"| 	c #85826F",
"1 	c #898673",
"2 	c #8A8774",
"3 	c #888572",
"4 	c #878471",
"5 	c #898874",
"6 	c #888773",
"7 	c #858470",
"8 	c #84836E",
"9 	c #6D6C5A",
"0 	c #615F50",
"a 	c #858376",
"b 	c #3F3B32",
"c 	c #898772",
"d 	c #625F4C",
"e 	c #5F5C49",
"f 	c #63604D",
"g 	c #67624F",
"h 	c #716C58",
"i 	c #716C56",
"j 	c #75705A",
"k 	c #666256",
"l 	c #5C584C",
"m 	c #5E5A4E",
"n 	c #585546",
"o 	c #656253",
"p 	c #5E5B4A",
"q 	c #63604F",
"r 	c #5F5C4B",
"s 	c #605D4C",
"t 	c #5C5948",
"u 	c #615E4D",
"v 	c #595645",
"w 	c #676453",
"x 	c #5D5A49",
"y 	c #5B5849",
"z 	c #595549",
"A 	c #646054",
"B 	c #666257",
"C 	c #585449",
"D 	c #5C594A",
"E 	c #5F5C4D",
"F 	c #605D4E",
"G 	c #5D5A4B",
"H 	c #625F4E",
"I 	c #646150",
"J 	c #686753",
"K 	c #61604C",
"L 	c #5C5B47",
"M 	c #5B5A48",
"N 	c #575546",
"O 	c #615F52",
"P 	c #5F5B52",
"Q 	c #3D3832",
"R 	c #5A5746",
"S 	c #6C6656",
"T 	c #686252",
"U 	c #726D5A",
"V 	c #75705C",
"W 	c #706B57",
"X 	c #6E6858",
"Y 	c #767060",
"Z 	c #6B6555",
"` 	c #6A6454",
" .	c #5D5747",
"..	c #605A4A",
"+.	c #5E5848",
"@.	c #5C5646",
"#.	c #696353",
"$.	c #706A5A",
"%.	c #6D6757",
"&.	c #787262",
"*.	c #6F6959",
"=.	c #686657",
"-.	c #626051",
";.	c #5D5B4E",
">.	c #5B594C",
",.	c #565448",
"'.	c #555347",
").	c #5C5A4E",
"!.	c #58564A",
"~.	c #5B594D",
"{.	c #5F5B4F",
"].	c #605C50",
"^.	c #655F51",
"/.	c #6A6456",
"(.	c #6E685A",
"_.	c #6F6858",
":.	c #666352",
"<.	c #5B574C",
"[.	c #54514A",
"}.	c #3E3B36",
"|.	c #8B8877",
"1.	c #676151",
"2.	c #777161",
"3.	c #736D5D",
"4.	c #746E5E",
"5.	c #756E5C",
"6.	c #6F6856",
"7.	c #77705D",
"8.	c #6D6653",
"9.	c #706957",
"0.	c #736C5A",
"a.	c #7B7462",
"b.	c #706959",
"c.	c #6D6656",
"d.	c #777060",
"e.	c #716A5A",
"f.	c #756E5E",
"g.	c #655E4E",
"h.	c #5D5B4C",
"i.	c #6E6C5D",
"j.	c #6F6D5E",
"k.	c #646255",
"l.	c #605E51",
"m.	c #5E5C4F",
"n.	c #5E5C50",
"o.	c #696657",
"p.	c #736C5C",
"q.	c #746D5B",
"r.	c #746B5A",
"s.	c #646152",
"t.	c #6F6C5D",
"u.	c #73705F",
"v.	c #5E5A4F",
"w.	c #58554E",
"x.	c #3B3833",
"y.	c #878173",
"z.	c #6C6658",
"A.	c #676153",
"B.	c #726C5C",
"C.	c #726B5B",
"D.	c #726C56",
"E.	c #716B55",
"F.	c #726B58",
"G.	c #6E6754",
"H.	c #726B59",
"I.	c #746D5D",
"J.	c #78715F",
"K.	c #6E6755",
"L.	c #766F5D",
"M.	c #5E5745",
"N.	c #6D6A5B",
"O.	c #6C695A",
"P.	c #625F50",
"Q.	c #5B574B",
"R.	c #5A564A",
"S.	c #6B6857",
"T.	c #6E6B5A",
"U.	c #706D5C",
"V.	c #736E5B",
"W.	c #746D5A",
"X.	c #746C57",
"Y.	c #736B56",
"Z.	c #5D5749",
"`.	c #5E584A",
" +	c #6C6958",
".+	c #636051",
"++	c #57544D",
"@+	c #3B3734",
"#+	c #5B5547",
"$+	c #6D6759",
"%+	c #716C59",
"&+	c #766F5C",
"*+	c #716A57",
"=+	c #716A58",
"-+	c #706A54",
";+	c #716954",
">+	c #726A55",
",+	c #645C4F",
"'+	c #5F5949",
")+	c #706B58",
"!+	c #746F5C",
"~+	c #5A5750",
"{+	c #3D3936",
"]+	c #4A4436",
"^+	c #77725F",
"/+	c #6C6555",
"(+	c #6F6855",
"_+	c #756C5B",
":+	c #6E6659",
"<+	c #6E6955",
"[+	c #6F6C59",
"}+	c #615D51",
"|+	c #59564F",
"1+	c #393532",
"2+	c #847E70",
"3+	c #6C6754",
"4+	c #736C59",
"5+	c #756E5B",
"6+	c #72695A",
"7+	c #797260",
"8+	c #6D6654",
"9+	c #736A59",
"0+	c #6F6655",
"a+	c #716857",
"b+	c #766E5B",
"c+	c #726A57",
"d+	c #6F6754",
"e+	c #776F5C",
"f+	c #736A5B",
"g+	c #746B5C",
"h+	c #756C5D",
"i+	c #726A5D",
"j+	c #71695C",
"k+	c #68634D",
"l+	c #74725D",
"m+	c #555249",
"n+	c #3F3C37",
"o+	c #8D8C77",
"p+	c #6C6A55",
"q+	c #726D59",
"r+	c #6F6A57",
"s+	c #6B695A",
"t+	c #6B695C",
"u+	c #5C5952",
"v+	c #363531",
"w+	c #85846F",
"x+	c #66644F",
"y+	c #5E584C",
"z+	c #5F5D50",
"A+	c #58554C",
"B+	c #3C3B37",
"C+	c #82816C",
"D+	c #63614C",
"E+	c #6E6956",
"F+	c #635D51",
"G+	c #575445",
"H+	c #5E5B4C",
"I+	c #575548",
"J+	c #56534A",
"K+	c #3F3B38",
"L+	c #868571",
"M+	c #5F594B",
"N+	c #5E5C4D",
"O+	c #59564D",
"P+	c #3A3633",
"Q+	c #66614E",
"R+	c #716B5D",
"S+	c #6B6859",
"T+	c #5B584F",
"U+	c #3A3732",
"V+	c #615B4B",
"W+	c #767062",
"X+	c #747160",
"Y+	c #898778",
"Z+	c #6C6457",
"`+	c #655F4F",
" @	c #59554A",
".@	c #3F3A36",
"+@	c #888677",
"@@	c #625C4C",
"#@	c #6E6757",
"$@	c #4F4939",
"%@	c #696655",
"&@	c #3A3531",
"*@	c #756D5A",
"=@	c #736B58",
"-@	c #73695F",
";@	c #766D5C",
">@	c #625D4A",
",@	c #494539",
"'@	c #3C3835",
")@	c #373538",
"!@	c #766F5F",
"~@	c #6E655C",
"{@	c #706956",
"]@	c #6A6552",
"^@	c #55524D",
"/@	c #3E393D",
"(@	c #7F8070",
"_@	c #565344",
":@	c #696355",
"<@	c #777165",
"[@	c #787266",
"}@	c #6C665A",
"|@	c #666054",
"1@	c #433F36",
"2@	c #444034",
"3@	c #57523F",
"4@	c #635E4B",
"5@	c #686053",
"6@	c #716B5B",
"7@	c #756F61",
"8@	c #5F5A54",
"9@	c #3D3737",
"0@	c #3F4030",
"a@	c #484637",
"b@	c #3C382C",
"c@	c #453F33",
"d@	c #6F685E",
"e@	c #686157",
"f@	c #413D32",
"g@	c #48443B",
"h@	c #514E47",
"i@	c #6F6C5B",
"j@	c #716E5D",
"k@	c #706855",
"l@	c #5C5A4B",
"m@	c #5A534B",
"n@	c #3D3835",
"o@	c #7F7D6E",
"p@	c #5D594D",
"q@	c #5B5549",
"r@	c #3C352B",
"s@	c #463F35",
"t@	c #534F46",
"u@	c #423F38",
"v@	c #636155",
"w@	c #726F5E",
"x@	c #6D6A59",
"y@	c #756D60",
"z@	c #78705D",
"A@	c #6B6452",
"B@	c #645D4B",
"C@	c #75705D",
"D@	c #6D6855",
"E@	c #5A5349",
"F@	c #403B37",
"G@	c #8D8B7C",
"H@	c #6B6557",
"I@	c #746E60",
"J@	c #5D574B",
"K@	c #615B4F",
"L@	c #706C60",
"M@	c #6B675B",
"N@	c #6C685C",
"O@	c #76715E",
"P@	c #6B6653",
"Q@	c #736B5E",
"R@	c #6C6553",
"S@	c #655E4C",
"T@	c #5C584D",
"U@	c #3D3834",
"V@	c #7F7C6D",
"W@	c #5A5148",
"X@	c #140C1C",
"Y@	c #706D5A",
"Z@	c #5A584C",
"`@	c #6C6753",
" #	c #72705B",
".#	c #685E54",
"+#	c #DEEED6",
"@#	c #847F6B",
"##	c #6B6451",
"$#	c #67604E",
"%#	c #8595A1",
"&#	c #D2AA99",
"*#	c #6DC2CA",
"=#	c #69655C",
"-#	c #5B5851",
";#	c #3C3934",
">#	c #8E8975",
",#	c #6A6351",
"'#	c #625E55",
")#	c #87826F",
"!#	c #666050",
"~#	c #878473",
"{#	c #5E5A51",
"]#	c #756F5F",
"^#	c #5D5950",
"/#	c #3D3A35",
"(#	c #89877A",
"_#	c #56534C",
":#	c #797A6C",
"<#	c #676558",
"[#	c #605C53",
"}#	c #55524B",
"|#	c #49493D",
"1#	c #535446",
"2#	c #706A5C",
"3#	c #7C7D6B",
"4#	c #616250",
"5#	c #6E6B58",
"6#	c #595748",
"7#	c #5A5653",
"8#	c #3B3535",
"9#	c #888977",
"0#	c #62614F",
"a#	c #5B5853",
"b#	c #80816F",
"c#	c #5F5E4C",
"d#	c #5A5849",
"e#	c #5B594A",
"f#	c #3A3730",
"g#	c #656251",
"h#	c #5C564A",
"i#	c #605A4C",
"j#	c #59574B",
"k#	c #3A3A32",
"l#	c #645E4E",
"m#	c #625C50",
"n#	c #645E50",
"o#	c #736E5A",
"p#	c #686552",
"q#	c #5F5D4E",
"r#	c #393931",
"s#	c #514B3B",
"t#	c #716859",
"u#	c #746F5B",
"v#	c #55554B",
"w#	c #3A3934",
"x#	c #807A6A",
"y#	c #7A7160",
"z#	c #716E5F",
"A#	c #6C6751",
"B#	c #56564C",
"C#	c #3C3D38",
"D#	c #7A7361",
"E#	c #726958",
"F#	c #746C59",
"G#	c #878674",
"H#	c #615A4A",
"I#	c #8F8E7C",
"J#	c #6F695B",
"K#	c #7A7967",
"L#	c #4C4B39",
"M#	c #635D4F",
"N#	c #615A48",
"O#	c #625B49",
"P#	c #625C4E",
"Q#	c #6E685C",
"R#	c #867E67",
"S#	c #776F5A",
"T#	c #726C54",
"U#	c #615B4D",
"V#	c #605D4A",
"W#	c #6D6A57",
"X#	c #665F4D",
"Y#	c #766E57",
"Z#	c #605D54",
"`#	c #615C49",
" $	c #3D3A33",
".$	c #8F8875",
"+$	c #565447",
"@$	c #726C5E",
"#$	c #6A6359",
"$$	c #77705E",
"%$	c #6B6454",
"&$	c #766D5E",
"*$	c #656155",
"=$	c #5A5752",
"-$	c #3E3A37",
";$	c #5A5446",
">$	c #655E54",
",$	c #615E4F",
"'$	c #686256",
")$	c #4C463A",
"!$	c #70685B",
"~$	c #7A7363",
"{$	c #786F60",
"]$	c #6E6556",
"^$	c #6D6B54",
"/$	c #6F6D58",
"($	c #686556",
"_$	c #57544F",
":$	c #5E5D4B",
"<$	c #756D58",
"[$	c #777461",
"}$	c #5A564B",
"|$	c #5C5A4D",
"1$	c #737061",
"2$	c #70695F",
"3$	c #403A2E",
"4$	c #787161",
"5$	c #71705C",
"6$	c #6C6B57",
"7$	c #6F6A56",
"8$	c #787360",
"9$	c #585743",
"0$	c #746E58",
"a$	c #6E6953",
"b$	c #6F6A54",
"c$	c #585649",
"d$	c #5A5748",
"e$	c #686755",
"f$	c #76705A",
"g$	c #696357",
"h$	c #464034",
"i$	c #6D6854",
"j$	c #7A7360",
"k$	c #605E4F",
"l$	c #73715C",
"m$	c #6A6853",
"n$	c #6E6C57",
"o$	c #64614E",
"p$	c #8D8C7A",
"q$	c #666354",
"r$	c #4C483C",
"s$	c #6A6758",
"t$	c #6C6956",
"u$	c #635F53",
"v$	c #5D594E",
"w$	c #5E5B52",
"x$	c #5D5A51",
"y$	c #615D52",
"z$	c #6A6754",
"A$	c #5A584B",
"B$	c #454136",
"C$	c #555145",
"D$	c #73705D",
"E$	c #605E52",
"F$	c #5F5B50",
"G$	c #676357",
"H$	c #57544B",
"I$	c #3C3932",
"J$	c #7E7C6F",
"K$	c #5F5D51",
"L$	c #545047",
"M$	c #59554C",
"N$	c #5B574E",
"O$	c #45423D",
"P$	c #3B3831",
"Q$	c #545148",
"R$	c #575549",
"S$	c #5D5B4F",
"T$	c #58544B",
"U$	c #555148",
"V$	c #575651",
"W$	c #57524C",
"X$	c #565249",
"Y$	c #464239",
"Z$	c #393631",
"`$	c #555346",
" %	c #585550",
".%	c #595651",
"+%	c #59544E",
"@%	c #524D49",
"#%	c #433E38",
"$%	c #3A352F",
"%%	c #3E3935",
"&%	c #3E3A39",
"*%	c #373334",
"=%	c #363231",
"-%	c #413D3A",
";%	c #383530",
">%	c #3A3635",
",%	c #3E3933",
"'%	c #3A3935",
")%	c #3C3731",
"!%	c #3D3938",
"~%	c #3D393A",
"{%	c #3B3736",
"]%	c #383732",
"^%	c #3B3B33",
"/%	c #3C3734",
"(%	c #3F3A37",
"_%	c #383433",
":%	c #403C3B",
"<%	c #353130",
"[%	c #3B3738",
"}%	c #3E3B34",
"|%	c #373632",
"1%	c #3C3B39",
"2%	c #3B393C",
"3%	c #383431",
"4%	c #39362F",
"5%	c #3C3839",
"6%	c #3C3837",
"7%	c #403C39",
"8%	c #3E3838",
"9%	c #3A3434",
"  . + @ # $ % & * = - ; > , ' ) ! ' ~ { ] ^ { ) / ( ( _ : < [ } | 1 2 3 4 5 6 7 * = - ; > , ' ) ! ' ~ { ] ^ { ) 8 5 7 9 0 a [ b ",
"c d e f g h i j k l m n o p q r s r t u v u s s w x y y z A B C D E F G x H I q k l m n o p q r s r t u v u s s J K L M N O P Q ",
"1 R x S T U V W S X Y Z `  ...+.@.#.$.%.&.X ` *.=.=.-.;.>.,.'.).!.~.{.].^./.(._.S X Y Z `  ...+.@.#.$.%.&.X ` *.I :.H p D <.[.}.",
"|.H 1.2.3.4.5.6.7.8.9.0.a.b.b.b.c.c.d.c.e.e.f.g.h.i.j.k.l.m.).n.>.l.k o.X p.q.r.7.8.9.0.a.b.b.b.c.c.d.c.e.e.f.g.s.t.u.w F v.w.x.",
"y.z.A.B.3._.c.C.D.E.F.G.H.H.I.b.J.K.q.H.6.5.L.M.D s.N.O.P.l Q.R.S.T.U.V.W.W.X.Y.D.E.F.G.H.H.I.b.J.K.q.H.6.5.L.M.Z.`.%. +.+C ++@+",
"#+$+Y %+H.5.I.I.D.&+7.*+9.H.0.b.=+9.=+q.H.6.K.9. ...S B.%.*.4.B.U U h *+-+;+;+>+D.&+7.*+9.H.0.b.=+9.=+q.H.6.K.9.,+'+)+!+S.l ~+{+",
"]+#.^+9.G.q.q./+F.(+6.0.q.H.=+0.L.H.K.6.L.q.H.5.=+q.L.0.=+0.q.9.H.H.=+=+=+=+0._+F.(+6.0.q.H.=+0.L.H.K.6.L.q.H.5.:+e.^+<+[+}+|+1+",
"2+Y 3+4+5+*+H.6+=+H.H.H.=+H.H.H.H.=+7+=+6.6.L.8+r.9+0+a+b+c+d+e+6+f+g+h+p.i+j+i+=+H.H.H.=+H.H.H.H.=+7+=+6.6.L.8+i+q.F.k+l+P.m+n+",
"o+p+q+4+H.0.q.e.H.H.H.H.H.H.H.H.H.H.H.H.H.H.H.H.H.H.H.H.H.H.H.H.H.H.H.H.H.H.H.H.H.H.H.H.H.H.H.H.H.H.H.H.H.H.H.H.r+4.m m s+t+u+v+",
"w+x+<+*+=+=+H.=+H.H.H.H.H.H.H.H.H.H.H.H.H.H.H.H.H.H.H.H.H.H.H.H.H.H.H.H.H.H.H.H.H.H.H.H.H.H.H.H.H.H.H.H.H.H.H.H.%+$.y+R.o z+A+B+",
"C+D+E+0.0.H.0.0.H.H.H.H.H.H.H.H.H.H.H.H.H.H.H.H.H.H.H.H.H.H.H.H.H.H.H.H.H.H.H.H.H.H.H.H.H.H.H.H.H.H.H.H.H.H.H.H.%+$.F+G+H+I+J+K+",
"L+f 3+0.q.0.0.0.H.H.H.H.H.H.H.H.H.H.H.H.H.H.H.H.H.H.H.H.H.H.H.H.H.H.H.H.H.H.H.H.H.H.H.H.H.H.H.H.H.H.H.H.H.H.H.H.*+3.$+M+H N+O+P+",
"! s Q+K.0.H.=+9.H.H.H.H.H.H.H.H.H.H.H.H.H.H.H.H.H.H.H.H.H.H.H.H.H.H.H.H.H.H.H.H.H.H.H.H.H.H.H.H.H.H.H.H.H.H.H.H.4+C.R+$+U.S+T+U+",
"! x V+/+p.0.H.=+H.H.H.H.H.H.H.H.H.H.H.H.H.H.H.H.H.H.H.H.H.H.H.H.H.H.H.H.H.H.H.H.H.H.H.H.H.H.H.H.H.H.H.H.H.H.H.H.5+8+:+W+X+t.<.}.",
"Y+G V+c.I.0.0.0.H.H.H.H.H.H.H.H.H.H.H.H.H.H.H.H.H.H.H.H.H.H.H.H.H.H.H.H.H.H.H.H.H.H.H.H.H.H.H.H.H.H.H.H.H.H.H.H.4+6.Z+X `+N. @.@",
"+@G @@#@I.=+=+0.H.H.H.H.H.H.H.H.H.H.H.H.H.H.H.H.H.H.H.H.H.H.H.H.H.H.H.H.H.H.H.H.H.H.H.H.H.H.H.H.H.H.H.H.H.H.H.H.(+L.#@V+$@%@ @&@",
"! u +.9._+*@=@*+-@;@>+(+H.C.b.4+H.H.H.H.H.H.H.H.H.H.H.H.H.H.H.H.H.H.H.H.H.H.H.H.H.H.H.H.H.H.H.H.9.H.=+=+=+0.0.H.4+K.e.0.>@,@'@)@",
"Y+^ V+f._.#@f.!@~@/+{@F._._.C.*+H.H.H.H.H.H.H.H.H.H.H.H.H.H.H.H.H.H.H.H.H.H.H.H.H.H.H.H.H.H.H.H.=+0.0.=+9.9.=+9.V.3.p.K.]@o ^@/@",
"(@h._@:@<@[@}@|@1@2@3@4@V+5@0.*+H.H.H.H.H.H.H.H.H.H.H.H.H.H.H.H.H.H.H.H.H.H.H.H.H.H.H.H.H.H.H.H.9.H.0.H.H.0.q.0.S.6@6@8+9.7@8@9@",
"0@a@b@c@d@e@f@g@h@n.i@j@%.:+H.k@H.H.H.H.H.H.H.H.H.H.H.H.H.H.H.H.H.H.H.H.H.H.H.H.H.H.H.H.H.H.H.H.=+H.H.H.q.5.H.6.l@.+(.%+4+*.m@n@",
"o@N p@q@r@s@<.t@u@v@w@x@B.y@0.z@H.H.H.H.H.H.H.H.H.H.H.H.H.H.H.H.H.H.H.H.H.H.H.H.H.H.H.H.H.H.H.H.0.H.=+=+H.H.A@B@N E $+C@5+D@E@F@",
"G@.+H@I@J@K@L@M@g@N@O@P@B.Q@R@F.H.H.H.H.H.H.H.H.H.H.H.H.H.H.H.H.H.H.H.H.H.H.H.H.H.H.H.H.H.H.H.H.0.H.9.=+0.0.R@S@H H@6@H.4+U T@U@",
"V@`+` f._.3.4.%@W@b.5+(+I.I._.4+H.H.H.H.H.H.H.H.H.H.H.X@X@X@X@X@X@X@X@X@X@H.H.H.H.H.H.H.H.H.H.H.=+H.=+=+0.5.H.6.r+3.I.(+W Y@Z@1+",
"$@T d.9.0.4+`@ #.#0+>+*+0.p.C.F.H.H.H.H.H.H.H.H.H.X@X@+#+#+#+#+#+#+#+#+#+#X@X@H.H.H.H.H.H.H.H.H.H.0.0.=+9.H.H.=+H.H.H.*+h x@O+B+",
"@#q+{@W.W.##5+H.A@$#A@H.0.H.0.0.H.H.H.H.H.H.H.H.X@%#+#%#%#%#%#%#&#*#+#+#+#+#%#X@H.H.H.H.H.H.H.H.H.H.H.H.H.H.H.H.0.L.X V+m =#-#;#",
">#V h 4+4+9.5.9.6.,#8+0.0.=+0.H.H.H.H.H.H.H.H.X@*#+#%#%#&#&#&#*#*#+#+#+#+#+#&#*#X@H.H.H.H.H.H.H.H.H.H.H.H.H.H.H.=+=+%.V+R.'#++U+",
")#g D@r+H.0.5.H.H.K.9.q.H.=+H.H.H.H.H.H.H.H.X@*#*#+#%#&#&#*#*#+#+#+#+#+#+#+#&#%#*#X@H.H.H.H.H.H.H.H.H.H.H.H.H.H.H.6.*.!#z P ++x.",
"~#u X V.5.q.9.=+q.9.=+0.=+=+H.=+H.H.H.H.H.X@+#+#*#*#+#+#+#+#+#+#+#+#+#+#+#&#*#*#%#+#X@H.H.H.H.H.H.H.H.H.H.H.H.H.q.6.4.X Q.{#w.}.",
"Y+G u ` 3.q.9._+q.9.=+0.=+=+0.=+H.H.H.H.X@+#+#+#&#*#*#*#+#+#+#+#+#+#+#+#&#*#*#%#+#+#+#X@H.H.H.H.H.H.H.H.H.H.H.H.0.6.]#$.l ^#++/#",
"(#N+_@D $.I.H.;@0.9.=+H.9.H.0.=+H.H.H.X@+#+#+#+#*#&#&#*#*#*#*#*#*#*#*#*#*#*#+#*#+#+#+#+#X@H.H.H.H.H.H.H.H.H.H.H.H.9.4.%.p@{#_#;#",
":#<#;.H+R+p.e.a+0.9.H.0.=+H.q.=+H.H.H.X@&#+#+#*#*#+#&#*#+#+#+#+#+#+#+#*#*#+#%#%#*#+#+#*#X@H.H.H.H.H.H.H.H.H.H.H.H.0.B.T p@[#}#/#",
"|#1#; D 2#e.f.9+0.=+H.0.=+0.q.9.H.H.H.H.X@*#*#*#+#+#+#&#*#+#+#+#+#+#*#*#*#%#%#%#*#*#*#X@H.H.H.H.H.H.H.H.H.H.H.H.=+q.*.@@Q.P [./#",
"3#4#R %.q.6.0.H.H.H.H.H.H.H.H.H.H.H.H.H.H.X@*#*#+#+#+#*#&#*#+#+#+#*#*#+#*#*#%#+#%#%#X@H.H.H.H.H.H.=+=+0.0.=+=+0.=@4+5#6#n.-#7#8#",
"9#0#v X L.=+=+H.H.H.H.H.H.H.H.H.H.H.H.H.H.H.X@*#+#+#*#&#&#&#%#+#*#*#+#%#+#*#*#+#*#X@H.H.H.H.H.H.0.H.=+=+H.0.0.0.9.H.T.h.>.T+a#n@",
"b#c#H b.9.;@H.=+H.H.H.H.H.H.H.H.H.H.H.H.H.H.H.X@*#*#*#&#&#&#&#%#*#+#%#+#+#*#%#*#X@H.H.H.H.H.H.H.H.0.H.9.=+q.H.8+b.$.B.:.d#Z@|+x.",
"{ q Z C.6.;@=+H.H.H.H.H.H.H.H.H.H.H.H.H.H.H.H.H.X@*#+#+#&#&#&#&#+#%#%#+#*#%#%#X@H.H.H.H.H.H.H.H.6.0.0.=+H.0.8+B@5@:@$.x@e#>.O+f#",
"~#g#%.I.9+_+K.0.H.H.H.H.H.H.H.H.H.H.H.H.H.H.H.H.H.X@+#+#&#&#&#&#%#%#+#+#*#%#X@H.H.H.H.H.H.H.H.H.6.0.0.=+H.0.8+B@h#i#Z %+s N+j#k#",
"x l#!@g+0+;@H.9.H.H.H.H.H.H.H.H.H.H.H.H.H.H.H.H.H.H.X@+#+#&#&#&#%#%#+#*#%#X@H.H.H.H.H.H.H.H.H.H.H.0.H.9.=+q.H.8+m#n#r+o#p#q#A+r#",
"s##.d.t#0+;@5.6.H.H.H.H.H.H.H.H.H.H.H.H.H.H.H.H.H.H.H.X@+#&#&#&#%#+#+#*#X@H.H.H.H.H.H.H.H.H.H.H.0.H.=+=+H.0.0.0._ %.u#q+)+F v#w#",
"x#&./+6+y#a+K.q.H.H.H.H.H.H.H.H.H.H.H.H.H.H.H.H.H.H.H.H.X@+#&#&#%#+#*#X@H.H.H.H.H.H.H.H.H.H.H.H.H.=+=+0.0.=+=+0.z#E+q+A#U E B#C#",
"o+p+q+4+H.0.q.e.H.H.H.H.H.H.H.H.H.H.H.H.H.H.H.H.H.H.H.H.H.X@+#&#%#+#X@H.H.H.H.H.H.H.H.H.H.H.H.H.H.H.H.H.H.H.H.H.r+4.m m s+t+u+v+",
"w+x+<+*+=+=+H.=+H.H.H.H.H.H.H.H.H.H.H.H.H.H.H.H.H.H.H.H.H.H.X@+#%#X@H.H.H.H.H.H.H.H.H.H.H.H.H.H.H.H.H.H.H.H.H.H.%+$.y+R.o z+A+B+",
"C+D+E+0.0.H.0.0.H.H.H.H.H.H.H.H.H.H.H.H.H.H.H.H.H.H.H.H.H.H.H.X@X@H.H.H.H.H.H.H.H.H.H.H.H.H.H.H.H.H.H.H.H.H.H.H.%+$.F+G+H+I+J+K+",
"L+f 3+0.q.0.0.0.H.H.H.H.H.H.H.H.H.H.H.H.H.H.H.H.H.H.H.H.H.H.H.H.H.H.H.H.H.H.H.H.H.H.H.H.H.H.H.H.H.H.H.H.H.H.H.H.*+3.$+M+H N+O+P+",
"! s Q+K.0.H.=+9.H.H.H.H.H.H.H.H.H.H.H.H.H.H.H.H.H.H.H.H.H.H.H.H.H.H.H.H.H.H.H.H.H.H.H.H.H.H.H.H.H.H.H.H.H.H.H.H.4+C.R+$+U.S+T+U+",
"! x V+/+p.0.H.=+H.H.H.H.H.H.H.H.H.H.H.H.H.H.H.H.H.H.H.H.H.H.H.H.H.H.H.H.H.H.H.H.H.H.H.H.H.H.H.H.H.H.H.H.H.H.H.H.5+8+:+W+X+t.<.}.",
"Y+G V+c.I.0.0.0.H.H.H.H.H.H.H.H.H.H.H.H.H.H.H.H.H.H.H.H.H.H.H.H.H.H.H.H.H.H.H.H.H.H.H.H.H.H.H.H.H.H.H.H.H.H.H.H.4+6.Z+X `+N. @.@",
"+@G @@#@I.=+=+0.H.H.H.H.H.H.H.H.H.H.H.H.H.H.H.H.H.H.H.H.H.H.H.H.H.H.H.H.H.H.H.H.H.H.H.H.H.H.H.H.H.H.H.H.H.H.H.H.(+L.#@V+$@%@ @&@",
") r V+=+9.6.D#9.H.H.H.H.H.H.H.H.H.H.H.H.H.H.H.H.B.U %+H.F.F.=@=@H.0.0.0.=+9.H.q.=+H.0.0.H.=+H.0.9+E#E#E#r.*@F#c+4+K.e.0.>@,@'@)@",
"' R '+=+J.H.H.9.H.H.H.H.H.H.H.H.H.H.H.H.H.H.H.H.%+%+U 0.4+4+F#F#=+H.H.H.H.=+H.0.=+H.0.0.H.=+=+H.0.=+=+H.=+6.6.H.V.3.p.K.]@o ^@/@",
"! r !#K.5.0.6.q.H.H.H.H.H.H.H.H.H.H.H.H.H.H.H.H.)+%+0.0.H.H.F.F.=+=+H.H.H.H.H.=+=+=+H.H.H.H.H.=+0.H.0.q.0.9.H.L.S.6@6@8+9.7@8@9@",
"' H $.6.K.5.H.q.H.H.H.H.H.H.H.H.H.H.H.H.H.H.H.H.H.H.H.H.=+=+=+=+H.H.H.=+=+H.H.=+H.H.H.=+=+H.H.=+H.H.0.0.q.0.e._.l@.+(.%+4+*.m@n@",
"G#t 6@q.6.L.5.6.H.H.H.H.H.H.H.H.H.H.H.H.H.H.H.H.H.H.H.H.H.H.C.C.H.0.0.=+9.H.H.=+H.0.0.=+9.H.0.=+=+0.H.6.e.I./+H#N E $+C@5+D@E@F@",
"I#s S 5.H.0.q.9.H.H.H.H.H.H.H.H.H.H.H.H.H.H.H.H.0.H.=+C.I.I.6@X K.H.0.=+=+H.0.=+K.H.0.=+9.H.0.H.W V.U )+B.]#J#^.H H@6@H.4+U T@U@",
"K#w *.=+0.9.H.q.H.H.H.H.H.H.H.H.H.H.H.H.H.H.H.H.r.E#=+C.I.6@H@^.$#K.0.0.=+H.0.=+$#K.0.H.=+H.0.=+h U U B.$.(.(.J#r+3.I.(+W Y@Z@1+",
"L#g#]#K.5.0.H.H.H.H.H.H.H.H.H.H.H.H.H.H.H.H.H.H._+E#9.C.p.X M##+N#A@0.q.H.0.H.9.O#A@0.0.=+H.0.=+h r+r+X !#Z.P#Q#H.H.H.*+h x@O+B+",
"R#S#4+9.q.=+5.=+T#-+%+J#: n.n.z+F#9.r+B.B.)+=+*@9.{@F.W.F.P@n#U#d+*@F.(+W.4+(+4+p+V#W#r+X#9.r.a+Y#E.=+$+{.C T+Z#(+4+F.`#.+B O+ $",
".$q.0.b.C.e.H.6.F.q.6@F+Q.<.+$;.*+0.V.3.B.V.q.4+7+0.9.=+3.@$Q##$q.$$H.K.0.q.=+0.U.t V+'+%$!@6+&$-+E.V.$.*$].;.; q.0.D@ .p@'#=$-$",
"~#!#J#2#Q@I.9+_+e.p.i+;$J@.+H+N.{@U B.S.%@*.%+F.=+6.K.$.2#}@>${#,$H@J#$.I.q.9+r.'$)$^.!$~${$]$t#^$/$Y@ +($o.:.p =+E+$.M#l ^#_$P+",
"G#:$i@]#B.0.d+<$I./+I.H#`+)+3+[$%+$.%@.+F I %.U W o#O@O@J#: T@}$|$=.1$]#U =+c+F#2$3$:@4$9.8+;@_+5$6$%@o q Z %+r+h 7$8$S.F ^#w.'@",
"6 9$0#w 3+F.-+0$I.'+C@E+<+o#a$b$/.P.p@>.c$R..+2#i i p+p#s d$d$|$e#-.e$%@P@*+&+f$g$h$S U i$F.j$K.=.k$>.Q.d$P#%.!+l$m$n$o$x l A+ $",
"p$:$d#D q$6@U U ].r$s$i@Y@5#t$f u$v$Z@w$x$Z@y$M@z$o$p G >.>.|$;.>.A$;.,$o $.$.1.B$C$1$x@D$X+x@,$E$Z@T+w$v$F$G$2#T.H q r ,$].H$I$",
"J$K$H$L$M$N$N$C O$P$Q$R$S$ @v$L$T$U$}#V$V$_#M$^#T@T$W$w.~+~+A+R$|+_#++M$T$N$X$Y$Z$[.w$`$; !.++_$_#}# %.%_$+%^#^#|+[.J+m+T+w.@%.@",
"#%$%%%@+&%1+{+@+*%=%-%;%n+;%K+>%,%I$;#'%'%;#P$)%n@n@!%~%{%1+]%^%n@/%(%'@_%&%:%<%[%!%;%}%^%|%1%2%;#;#{+@+3%'@}.4%5%6%7%1+{+@+8%9%"};
