/* XPM */
static char *dd6f028c8f934f9eeb837e758a850770jho4A2ZgUMg1qrHg[] = {
/* columns rows colors chars-per-pixel */
"64 64 222 2 ",
"   c #000000",
".  c #0B0101",
"X  c #020A03",
"o  c #0B0902",
"O  c #02010B",
"+  c #0B030D",
"@  c #01090B",
"#  c #120402",
"$  c #180000",
"%  c #120B03",
"&  c #180F06",
"*  c #081300",
"=  c #1C1400",
"-  c #151802",
";  c #1C1903",
":  c #171408",
">  c #010012",
",  c #0A0011",
"<  c #07001B",
"1  c #180D14",
"2  c #141713",
"3  c #250F05",
"4  c #2C1B00",
"5  c #251808",
"6  c #331E06",
"7  c #3F1B00",
"8  c #240F14",
"9  c #2D2301",
"0  c #2C2B01",
"q  c #2B2808",
"w  c #362302",
"e  c #3A2202",
"r  c #362C0A",
"t  c #3C3503",
"y  c #2A2014",
"u  c #312F23",
"i  c #421D00",
"p  c #422404",
"a  c #42280A",
"s  c #483A09",
"d  c #583901",
"f  c #433D1D",
"g  c #4C2B1A",
"h  c #653904",
"j  c #753C05",
"k  c #423522",
"l  c #3D4104",
"z  c #4D430A",
"x  c #4B4602",
"c  c #514B03",
"v  c #584703",
"b  c #5D5301",
"n  c #5E5F00",
"m  c #4F4110",
"M  c #505010",
"N  c #664E00",
"B  c #6D4200",
"V  c #744302",
"C  c #724F0B",
"Z  c #6C5D08",
"A  c #7C5100",
"S  c #765F02",
"D  c #795E03",
"F  c #6E6900",
"G  c #756903",
"H  c #766405",
"J  c #777707",
"K  c #874A06",
"L  c #885000",
"P  c #9B5A00",
"I  c #945502",
"U  c #A55102",
"Y  c #A75B06",
"T  c #B45E03",
"R  c #886707",
"E  c #8B7403",
"W  c #8D750B",
"Q  c #917E00",
"!  c #987F11",
"~  c #AC6600",
"^  c #B06402",
"/  c #BA630B",
"(  c #B76B05",
")  c #B67500",
"_  c #B06D16",
"`  c #A57B17",
"'  c #C36C02",
"]  c #CB6D00",
"[  c #D26F00",
"{  c #C57301",
"}  c #CE7201",
"|  c #CD7D02",
" . c #C07A08",
".. c #D37401",
"X. c #DC7402",
"o. c #D47B01",
"O. c #DB7C02",
"+. c #D4730B",
"@. c #DA7C0A",
"#. c #D17F0F",
"$. c #E17E04",
"%. c #EF7D00",
"&. c #7C8704",
"*. c #968000",
"=. c #9A9805",
"-. c #AA9407",
";. c #B59D02",
":. c #BA9C0A",
">. c #B49A09",
",. c #B39A19",
"<. c #B6A10A",
"1. c #D48505",
"2. c #DD8202",
"3. c #DC8A03",
"4. c #DD830A",
"5. c #D68A08",
"6. c #D49100",
"7. c #DC9401",
"8. c #DC9B02",
"9. c #D1980D",
"0. c #C78016",
"q. c #DE8511",
"w. c #E28502",
"e. c #EA8601",
"r. c #E58B02",
"t. c #EA8D01",
"y. c #E6870D",
"u. c #E58D0B",
"i. c #EB8B09",
"p. c #ED850C",
"a. c #F28E03",
"s. c #F28D0B",
"d. c #F0810D",
"f. c #E59302",
"g. c #EC9302",
"h. c #E39C03",
"j. c #EB9A04",
"k. c #E4940A",
"l. c #EC920A",
"z. c #EE9F09",
"x. c #E5980A",
"c. c #F39301",
"v. c #F1940A",
"b. c #F49D02",
"n. c #ED8A15",
"m. c #E59212",
"M. c #C2A601",
"N. c #DBA300",
"B. c #DFA20E",
"V. c #D3B403",
"C. c #D1BC00",
"Z. c #D8B809",
"A. c #D8B915",
"S. c #E5A201",
"D. c #EAA401",
"F. c #E4AA01",
"G. c #EBAC01",
"H. c #E7A70B",
"J. c #F1A401",
"K. c #F1AB0D",
"L. c #ECB203",
"P. c #EDBD01",
"I. c #EEB309",
"U. c #E5BF0C",
"Y. c #EDBA0C",
"T. c #E6B000",
"R. c #F2B402",
"E. c #F3BC01",
"W. c #FABD03",
"Q. c #F5B40E",
"!. c #F4BC0C",
"~. c #FCBB0B",
"^. c #EBAC13",
"/. c #E3BE17",
"(. c #F2B513",
"). c #F1BB11",
"_. c #FCBE15",
"`. c #DAC10C",
"'. c #ECC303",
"]. c #EECB02",
"[. c #E7C605",
"{. c #F4C401",
"}. c #FBC503",
"|. c #F5CB02",
" X c #FBCC04",
".X c #FDC209",
"XX c #F4CB0B",
"oX c #FCCB0B",
"OX c #F0C409",
"+X c #F6D202",
"@X c #FBD204",
"#X c #FDD901",
"$X c #F5D509",
"%X c #FDD30A",
"&X c #FED90A",
"*X c #F5D90C",
"=X c #EFC910",
"-X c #FECF11",
";X c #FEC212",
":X c #FDD314",
">X c #F6D51E",
",X c #FBD219",
"<X c #FCDB1D",
"1X c #FAD914",
"2X c #FFFF0D",
"3X c #F2C522",
"4X c #FED928",
"5X c #F7DC25",
"6X c #FFDF34",
"7X c #FAE629",
"8X c #FFFC25",
"9X c #F4FD26",
"0X c #FFE632",
"qX c #FCE63D",
"wX c #FFFE34",
"eX c #F5FF3B",
"rX c #F2FF35",
"tX c #FDFF49",
"yX c #F6F664",
"uX c #FFFF9C",
"iX c #FFFFA4",
"pX c #FFF7FE",
/* pixels */
"                                                                                                                                ",
"                                                                                                                                ",
"                                                                                                                                ",
"                                                                                                                                ",
"                                                                                                                                ",
"                                                                                                                                ",
"                                                                                                                                ",
"                                                                                                                                ",
"                                                                                                                                ",
"                                                                                                                                ",
"                                                                                                                                ",
"                                                                                                                                ",
"                                                                                                                                ",
"                                                                                                                                ",
"                                                                                                                                ",
"                                                                                                                                ",
"                  O       o     X     O     O . O   O O                 X   O           O .   O         O   X                   ",
"                O   +     > O       > O O         ; = y uXpXeXtXtXyXiXs = 5 %   O +       X   X     X                           ",
"                      O X   > > O   . .   @ 0 eX@ @ - q z z z m x v x 0 = 2 X   =.r O           X             X                 ",
"                X               .     X M . y c D *.:.:.`.=X[.[.|.P./.M.:.,.W D z 8 O x @   + .   +     +                       ",
"                  X     @     < @ 1 &.. f b -.A.|.-X X}.W.L.S.G.S.F.G.W.|.@XoXXXV.-.J 9 . Z O       X                           ",
"                      X   +     q , t Z ;.OX X XOXN.N.H.G.^.R.!.!.G.L.H.8.8.F.W.{.:X[.-.Z t + - o         O                     ",
"                    X     O   &.5 G M.XX%XXXH.S.A.3X4X,X%X#X#X+X#X+X@X&X@X XOXF.h.H.{.%XU.;.v % o o   o       X                 ",
"                  O     O o r # H C.&XW.h.B.3X0XqX0X4X+X&X+XXX&X%X|.@X%X|.%X@X X}.L.8.S.;X#X`.S   u                             ",
"                O         o < S C.@X~.x.I.5XtX5X&X$X+X+X%X}.OX>X5X=X|. X@X+X%XoXoX$X+XD.l.W.#XV.R ; O       O                   ",
"                    O     % G Z.#X(.7.L.<X5X>X=X@X&X+X X}.P.OX<X7X>X X X%X@X+X@X X#X|.:XG.6.).@XZ.N           O                 ",
"                    O X . s V.&XR.7.Q.#X$X%X@X X X+X%X|.{.E.XX1X0X,XOX{.XX+X+X+X:X X@X*X+X(.7.}.#X<.t . , X                     ",
"                    O   : E &X{.3.S.%X+X|.@X@X@X@X@X%X{.E.}.%X$X:X%X{.P.XX%X#X X X&X@X+X+X}.D.k. X=XG   O O X                   ",
"                    O   q A.}.L.3.oX$X X X{.XX#X@X X%X{.{.%X&X|. X%X X{.oX:X:X@X#XXXP. X%X XoX| I.&X>.9       .                 ",
"                        F [.@X6.G.@X|.!.Q..X&X|.@X|. X%X X@X@X X+X@X+X&X%X%XoX&X|.+X}.K.(.+X|.h.6.}.$XG       ,                 ",
"                +     o *.+X|.1.P. X&XR.8.E. X:X&X|.@X%X@X+X X%X@X X+X@X%X X+X+X%X%XG.7.L.#X XI.1.W.|.E   ,                     ",
"                  X X . ` +XoXl.Y.oX X@X!.H.S.|.%X X@X@X+X$X&X|.%X+X+X#X|.@X@X+X'.f.l.~.+X#XoXY.1.W.OXR X   .                   ",
"                  O     ! #X|.v.{.@X+X|.#X@XL.8.T.}.@X+X+X+X+X@X#X+X@X%XoX}..XG.3.D.}.~.L.}.}.I.X.g.F.E X O   O                 ",
"                + @   o Q }.E.1.j.~.~.I.!.oX@X}.5.x.R.oX}.{.W.~. X}.}.E.G.h.5.#.!..XD.7.j.J.J.j.q.r.h.R   O .                   ",
"                  X     H S._.8.2.c.b.f.x.R.}.{.m.3.f.j.j.f.g.j.j.j.z.f.g.g.2.4.L.R.f.i.i.e.l.O.1.a.w.C                         ",
"                        4 9.g.S.1.r.c.t.r.g.j.g.O.$.i.l.t.t.c.r.t.g.g.r.r.e.w.$.f.g.t.c.a.t.r.o.r.a.^ 4 .   X                   ",
"                  +   o ; A t.l.3.3.r.g.t.r.i.y...r.l.g.t.g.i.w.w.w.t.g.g.l.y.] p.s.t.r.g.r.O.w.i.i.V .                         ",
"                  +       g 1.r.g.w.O.r.g.g.i.2...r.t.r.w.4.....o.O.O.w.w.r.u.} r.r.g.f.3.w.$.s.g.( e @   .                     ",
"                      X   $ B 5.l.f.r.w.r.g.t.w.@.O.O.o.O.2.r.g.l.r.O...} O.2.O.r.r.g.u.O.2.i.i.#.d   O X O O                   ",
"                    . X   N 5 L 2.g.g.1.+.w.t.i.@...O.r.t.g.g.t.t.t.v.r.w.2...@.w.v.w.@.O.r.f.o.B &   .   O O                   ",
"                          . k # K 3.f.m.4.1.$.t.3.f.a.r.e.g.a.t.i.g.c.e.g.g.r.r.r.O.+.o.3.i.o.N . y o   O   .                   ",
"                  X     X   . k = j ) w.j.v.$.| | %.e.x.l.e.r.u.l.r.g.t.g.y.@.O.+.@.{ ..2._ d .   %     X                       ",
"                      X   +   % 5   a I ( 3.n.1.u.w.O.+.| 4.@.{ o.o.@.+.+.+.X.o.[ ] { P K w X 8 o             X                 ",
"                +                 2 Y X w K U  .t.f.k.%.| @.$.X...w.O.....] ' ' ^ U A ;   N #       +                           ",
"                        X     @ .   o   h @ 3 s h I ) ~ T / Y / / / T ~ I K j h r * , r $ +       X                             ",
"                X   o     O O   .     O +   4 ~.X   : p p i p i 7 7 7 a 6 # X O Y 6 +             O O                           ",
"                              o O       X X @     1 & +.wX7XrX9X8XwX2X8Xd 8 # +     X O   @   O         X                       ",
"                    o   O             + .   .     .       X   .       O o         # O   . X X .     .                           ",
"                                                                                                                                ",
"                                                                                                                                ",
"                                                                                                                                ",
"                                                                                                                                ",
"                                                                                                                                ",
"                                                                                                                                ",
"                                                                                                                                ",
"                                                                                                                                ",
"                                                                                                                                ",
"                                                                                                                                ",
"                                                                                                                                ",
"                                                                                                                                ",
"                                                                                                                                ",
"                                                                                                                                ",
"                                                                                                                                ",
"                                                                                                                                "
};
