/* XPM */
static char * exit_xpm[] = {
"64 64 612 2",
"  	c None",
". 	c #8C8A73",
"+ 	c #84836E",
"@ 	c #8C8976",
"# 	c #84816E",
"$ 	c #878471",
"% 	c #928D79",
"& 	c #89846E",
"* 	c #8D8970",
"= 	c #7E7B72",
"- 	c #45423A",
"; 	c #373529",
"> 	c #5A564B",
", 	c #8C8A7B",
"' 	c #858374",
") 	c #8A8977",
"! 	c #8A8774",
"~ 	c #3E3C2C",
"{ 	c #5D5A4C",
"] 	c #848371",
"^ 	c #868573",
"/ 	c #6E695A",
"( 	c #656152",
"_ 	c #858376",
": 	c #898673",
"< 	c #898778",
"[ 	c #8D8C77",
"} 	c #8A8873",
"| 	c #706D5C",
"1 	c #64614E",
"2 	c #7F8070",
"3 	c #3F4030",
"4 	c #5C5B47",
"5 	c #68634D",
"6 	c #716C59",
"7 	c #716A57",
"8 	c #75705A",
"9 	c #5B5646",
"0 	c #625D4C",
"a 	c #565346",
"b 	c #56534B",
"c 	c #625E51",
"d 	c #5E5A51",
"e 	c #3D3935",
"f 	c #6C6655",
"g 	c #75705C",
"h 	c #777060",
"i 	c #72695A",
"j 	c #787262",
"k 	c #676558",
"l 	c #6D6659",
"m 	c #6E6956",
"n 	c #78715E",
"o 	c #3E3A39",
"p 	c #736C5C",
"q 	c #746D5D",
"r 	c #706756",
"s 	c #736C59",
"t 	c #746B5A",
"u 	c #716C58",
"v 	c #7B7462",
"w 	c #767161",
"x 	c #878173",
"y 	c #746B5C",
"z 	c #786F60",
"A 	c #575651",
"B 	c #494537",
"C 	c #776F5C",
"D 	c #6E6959",
"E 	c #726B58",
"F 	c #746F5B",
"G 	c #726859",
"H 	c #716956",
"I 	c #716B58",
"J 	c #736A59",
"K 	c #766E5A",
"L 	c #74725D",
"M 	c #3A3633",
"N 	c #847E70",
"O 	c #6B6554",
"P 	c #685E4A",
"Q 	c #625442",
"R 	c #61533F",
"S 	c #625543",
"T 	c #635742",
"U 	c #615742",
"V 	c #615640",
"W 	c #655944",
"X 	c #635643",
"Y 	c #615643",
"Z 	c #635644",
"` 	c #635642",
" .	c #706955",
"..	c #706A5A",
"+.	c #726A57",
"@.	c #6A6050",
"#.	c #574A35",
"$.	c #4B381D",
"%.	c #4B381E",
"&.	c #4B381F",
"*.	c #574934",
"=.	c #6B624F",
"-.	c #706A57",
";.	c #363432",
">.	c #85846F",
",.	c #675F4B",
"'.	c #584933",
").	c #4D4436",
"!.	c #4A453A",
"~.	c #4A443A",
"{.	c #4D4336",
"].	c #574933",
"^.	c #695F4B",
"/.	c #82816C",
"(.	c #706855",
"_.	c #534A3B",
":.	c #594B2C",
"<.	c #978133",
"[.	c #AF9736",
"}.	c #AF9636",
"|.	c #B09836",
"1.	c #B19936",
"2.	c #53493A",
"3.	c #6A5F4C",
"4.	c #706956",
"5.	c #574932",
"6.	c #56492E",
"7.	c #877639",
"8.	c #D9B925",
"9.	c #F9D30C",
"0.	c #F6D10E",
"a.	c #F1CC0E",
"b.	c #EDC80E",
"c.	c #584932",
"d.	c #69624F",
"e.	c #706B58",
"f.	c #898874",
"g.	c #675C4B",
"h.	c #574A36",
"i.	c #4B4235",
"j.	c #978232",
"k.	c #D8B826",
"l.	c #F6D111",
"m.	c #FFDB00",
"n.	c #FDD600",
"o.	c #D1B000",
"p.	c #AA8D00",
"q.	c #564A36",
"r.	c #695D4B",
"s.	c #6F6855",
"t.	c #68604C",
"u.	c #554A3A",
"v.	c #5B4C2B",
"w.	c #927E35",
"x.	c #D1B22B",
"y.	c #FCD506",
"z.	c #FFDA00",
"A.	c #F6D000",
"B.	c #D9B703",
"C.	c #947C1C",
"D.	c #3E3026",
"E.	c #3E2F26",
"F.	c #544A3A",
"G.	c #685F4B",
"H.	c #706758",
"I.	c #6A5F4F",
"J.	c #574930",
"K.	c #524632",
"L.	c #8A7838",
"M.	c #DBBB23",
"N.	c #FAD40A",
"O.	c #FED701",
"P.	c #FCD500",
"Q.	c #D8B502",
"R.	c #886F14",
"S.	c #655731",
"T.	c #62593E",
"U.	c #524631",
"V.	c #574731",
"W.	c #69614E",
"X.	c #675E4A",
"Y.	c #564839",
"Z.	c #4E4434",
"`.	c #998331",
" +	c #D5B528",
".+	c #F7D110",
"++	c #FAD300",
"@+	c #D0AF00",
"#+	c #605331",
"$+	c #A99030",
"%+	c #CFB12C",
"&+	c #CDAF2C",
"*+	c #554A38",
"=+	c #4D493A",
"-+	c #746E60",
";+	c #5D4D2A",
">+	c #8D7B37",
",+	c #D2B32A",
"'+	c #FDD605",
")+	c #FFD900",
"!+	c #F7D100",
"~+	c #DBB905",
"{+	c #907819",
"]+	c #65552C",
"^+	c #978337",
"/+	c #C9AB24",
"(+	c #EAC602",
"_+	c #FBD401",
":+	c #FFD801",
"<+	c #69604C",
"[+	c #726958",
"}+	c #6A5F4D",
"|+	c #57482F",
"1+	c #DCBB22",
"2+	c #F8D20D",
"3+	c #FFD800",
"4+	c #D5B300",
"5+	c #8A7115",
"6+	c #605333",
"7+	c #9F8934",
"8+	c #DAB91E",
"9+	c #AD920D",
"0+	c #A98F03",
"a+	c #F2CD00",
"b+	c #615C4B",
"c+	c #605346",
"d+	c #554A3B",
"e+	c #FFDC00",
"f+	c #F8D200",
"g+	c #D2B000",
"h+	c #967D1D",
"i+	c #61532F",
"j+	c #A89031",
"k+	c #C4A71D",
"l+	c #B69800",
"m+	c #705C00",
"n+	c #8A7405",
"o+	c #EEC901",
"p+	c #5A5751",
"q+	c #3B3738",
"r+	c #433D35",
"s+	c #726A5D",
"t+	c #6D6758",
"u+	c #655D4B",
"v+	c #554736",
"w+	c #FCD605",
"x+	c #FED700",
"y+	c #DCB906",
"z+	c #8D7417",
"A+	c #63542E",
"B+	c #938038",
"C+	c #D1B220",
"D+	c #CDB147",
"E+	c #88806A",
"F+	c #40444B",
"G+	c #8E7703",
"H+	c #EECA00",
"I+	c #574936",
"J+	c #7D7C6D",
"K+	c #524D49",
"L+	c #413D39",
"M+	c #655D4C",
"N+	c #564832",
"O+	c #4B4236",
"P+	c #D2B100",
"Q+	c #8D7416",
"R+	c #605434",
"S+	c #A48D33",
"T+	c #D6B61F",
"U+	c #AC9100",
"V+	c #AEA58D",
"W+	c #D3D2CF",
"X+	c #909295",
"Y+	c #8E7700",
"Z+	c #574732",
"`+	c #8E8C7B",
" @	c #71695C",
".@	c #5E5443",
"+@	c #5E491A",
"@@	c #98812A",
"#@	c #BE9F00",
"$@	c #6B5514",
"%@	c #A1892D",
"&@	c #C2A527",
"*@	c #BEA101",
"=@	c #715E00",
"-@	c #7A7C7F",
";@	c #BBBBBA",
">@	c #828385",
",@	c #5D4919",
"'@	c #635946",
")@	c #827D6B",
"!@	c #5E5545",
"~@	c #6F5918",
"{@	c #D1B008",
"]@	c #FCD507",
"^@	c #FED801",
"/@	c #FCD600",
"(@	c #BE9F01",
"_@	c #886F04",
":@	c #DEBB09",
"<@	c #CBAC11",
"[@	c #5C4E16",
"}@	c #1F1D16",
"|@	c #2F2F2F",
"1@	c #434342",
"2@	c #212731",
"3@	c #8F7912",
"4@	c #EECA04",
"5@	c #6F5817",
"6@	c #605647",
"7@	c #685E54",
"8@	c #5F5447",
"9@	c #715B16",
"0@	c #D7B500",
"a@	c #BE9F02",
"b@	c #8B7101",
"c@	c #E4C000",
"d@	c #CEAF23",
"e@	c #524C37",
"f@	c #2B333A",
"g@	c #363836",
"h@	c #313331",
"i@	c #272F36",
"j@	c #958030",
"k@	c #EFCB12",
"l@	c #715A15",
"m@	c #5E5445",
"n@	c #705A16",
"o@	c #D6B401",
"p@	c #F4CE01",
"q@	c #DAB802",
"r@	c #D2B202",
"s@	c #E0BE02",
"t@	c #F5D000",
"u@	c #BFA002",
"v@	c #8A7002",
"w@	c #E3C002",
"x@	c #E2C022",
"y@	c #AE9636",
"z@	c #A69038",
"A@	c #A89137",
"B@	c #A68F38",
"C@	c #C4A82F",
"D@	c #F5D011",
"E@	c #5E5647",
"F@	c #D7B501",
"G@	c #DEBC02",
"H@	c #7C6805",
"I@	c #463A06",
"J@	c #988004",
"K@	c #EAC601",
"L@	c #C1A101",
"M@	c #E4C001",
"N@	c #FDD607",
"O@	c #F6D010",
"P@	c #FED703",
"Q@	c #705917",
"R@	c #D8B501",
"S@	c #D9B802",
"T@	c #5B4C05",
"U@	c #000006",
"V@	c #846F05",
"W@	c #E7C401",
"X@	c #C1A201",
"Y@	c #705916",
"Z@	c #DAB902",
"`@	c #615105",
" #	c #877205",
".#	c #E8C401",
"+#	c #E3C001",
"@#	c #F4CF01",
"##	c #DEBB02",
"$#	c #73705F",
"%#	c #8B7102",
"&#	c #E3BF01",
"*#	c #D4B302",
"=#	c #796605",
"-#	c #675605",
";#	c #6B5905",
">#	c #CAAB03",
",#	c #3A2F06",
"'#	c #000005",
")#	c #240D06",
"!#	c #200500",
"~#	c #0F0000",
"{#	c #0A0000",
"]#	c #1E0100",
"^#	c #230D06",
"/#	c #240D05",
"(#	c #CBAC03",
"_#	c #483B05",
":#	c #341E04",
"<#	c #4B3100",
"[#	c #55401A",
"}#	c #796F63",
"|#	c #7E756A",
"1#	c #5B482C",
"2#	c #4A3100",
"3#	c #493203",
"4#	c #533A00",
"5#	c #79694C",
"6#	c #C7C3BC",
"7#	c #D1CEC8",
"8#	c #877A64",
"9#	c #563D00",
"0#	c #4B3303",
"a#	c #483B04",
"b#	c #311900",
"c#	c #82786B",
"d#	c #C1BCB3",
"e#	c #EEEDE8",
"f#	c #F3F2EF",
"g#	c #CAC6BE",
"h#	c #90877B",
"i#	c #4C3610",
"j#	c #483A03",
"k#	c #2E1200",
"l#	c #A5A09A",
"m#	c #F2F1EE",
"n#	c #FFFFFD",
"o#	c #F7F7F5",
"p#	c #B8B5B0",
"q#	c #4E3919",
"r#	c #2E1100",
"s#	c #A8A39E",
"t#	c #F6F6F3",
"u#	c #FFFFFF",
"v#	c #FCFBF9",
"w#	c #BCB8B4",
"x#	c #4F391A",
"y#	c #A8A49E",
"z#	c #F6F6F4",
"A#	c #FCFCFA",
"B#	c #BCB9B5",
"C#	c #A29C96",
"D#	c #EDECE9",
"E#	c #FDFDFB",
"F#	c #FEFEFB",
"G#	c #F3F2F0",
"H#	c #B4B0AB",
"I#	c #4E3918",
"J#	c #321A00",
"K#	c #786C5C",
"L#	c #B3ACA1",
"M#	c #E9E7E2",
"N#	c #EFEEEA",
"O#	c #BDB8AD",
"P#	c #847969",
"Q#	c #4C350D",
"R#	c #4F3400",
"S#	c #6F5D3C",
"T#	c #BBB7AF",
"U#	c #C5C1BB",
"V#	c #7D6F56",
"W#	c #503500",
"X#	c #4A3203",
"Y#	c #341F04",
"Z#	c #4B3300",
"`#	c #523C17",
" $	c #695C4D",
".$	c #6C6052",
"+$	c #554123",
"@$	c #705A17",
"#$	c #4A3205",
"$$	c #472E00",
"%$	c #3C1500",
"&$	c #390D00",
"*$	c #462B00",
"=$	c #4A3206",
"-$	c #605547",
";$	c #57421B",
">$	c #7F756A",
",$	c #847C72",
"'$	c #5D4B2E",
")$	c #341E03",
"!$	c #553D00",
"~$	c #7C6D51",
"{$	c #CBC7C0",
"]$	c #D4D1CC",
"^$	c #8A7E69",
"/$	c #584000",
"($	c #4A3304",
"_$	c #311800",
":$	c #867C70",
"<$	c #C6C1B9",
"[$	c #F0EEEA",
"}$	c #F4F3F0",
"|$	c #CFCBC3",
"1$	c #948B80",
"2$	c #4D3611",
"3$	c #A6A19B",
"4$	c #FFFFFE",
"5$	c #F9F9F6",
"6$	c #B9B6B1",
"7$	c #4E391A",
"8$	c #A8A39D",
"9$	c #F5F5F3",
"0$	c #FBFBF9",
"a$	c #BBB8B3",
"b$	c #DAB901",
"c$	c #605002",
"d$	c #301700",
"e$	c #8C8378",
"f$	c #CECBC3",
"g$	c #F3F2EE",
"h$	c #D7D3CD",
"i$	c #9B948A",
"j$	c #4D3613",
"k$	c #DAB909",
"l$	c #665614",
"m$	c #362D0F",
"n$	c #9C8404",
"o$	c #331D03",
"p$	c #594314",
"q$	c #84765D",
"r$	c #D1CEC7",
"s$	c #DBD8D3",
"t$	c #928773",
"u$	c #5D4819",
"v$	c #4B3305",
"w$	c #D8B500",
"x$	c #DBBA1E",
"y$	c #796A34",
"z$	c #A99025",
"A$	c #F6D100",
"B$	c #5A451D",
"C$	c #8A8278",
"D$	c #918980",
"E$	c #625033",
"F$	c #4B3000",
"G$	c #373538",
"H$	c #5F5647",
"I$	c #715A16",
"J$	c #D8B600",
"K$	c #EBC71D",
"L$	c #BDA232",
"M$	c #E1C023",
"N$	c #FFDB01",
"O$	c #E4C101",
"P$	c #CCAD02",
"Q$	c #473A05",
"R$	c #241105",
"S$	c #3C2805",
"T$	c #3A2601",
"U$	c #361E00",
"V$	c #351C00",
"W$	c #3A2500",
"X$	c #3B2805",
"Y$	c #3C2804",
"Z$	c #715A17",
"`$	c #5E5747",
" %	c #6E5817",
".%	c #D0AE01",
"+%	c #F5CF06",
"@%	c #EFCA0E",
"#%	c #F3CD08",
"$%	c #F4CF00",
"%%	c #B89A02",
"&%	c #876E02",
"*%	c #DCB901",
"=%	c #C5A603",
"-%	c #453805",
";%	c #1E1405",
">%	c #1E1406",
",%	c #6E5816",
"'%	c #605747",
")%	c #635747",
"!%	c #5C4613",
"~%	c #947902",
"{%	c #AE9101",
"]%	c #B09200",
"^%	c #AE9100",
"/%	c #AE9002",
"(%	c #AB8E02",
"_%	c #856C02",
":%	c #685103",
"<%	c #9C8002",
"[%	c #8D7403",
"}%	c #483404",
"|%	c #372304",
"1%	c #3A2704",
"2%	c #5D4613",
"3%	c #5A4B33",
"4%	c #56462D",
"5%	c #56462F",
"6%	c #57472F",
"7%	c #56472E",
"8%	c #57462F",
"9%	c #57472E",
"0%	c #56472F",
"a%	c #57472D",
"b%	c #584931",
"c%	c #695E4D",
"d%	c #6F6A57",
"e%	c #6E6454",
"f%	c #6C6653",
"g%	c #6E6653",
"h%	c #6F6554",
"i%	c #6D6354",
"j%	c #6E6354",
"k%	c #6F6756",
"l%	c #6A6350",
"m%	c #6D6653",
"n%	c #6D6451",
"o%	c #6C6451",
"p%	c #716A5A",
"q%	c #7A7967",
"r%	c #867E67",
"s%	c #77705D",
"t%	c #454135",
"u%	c #524F47",
"                                                                                                                                ",
". + @ # $ % & * = - ; > , ' ' ) ! ' , $ ~ { ] ) ^ ! ! / ( _ _ - $ ^ ) ^ ^ ) : + = - ; > , $ ' < ) ^ [ ^ ~ { + ) + } ^ | 1 2 _ 3 ",
"} 1 4 1 5 6 7 8 ( { { 9 ( { 1 0 4 0 4 0 a 1 1 { ( 4 { > b ( ( b 4 { 0 { 4 0 ( 5 ( { { > ( 4 0 0 0 { 4 0 9 0 1 { 5 1 4 4 a c d e ",
"! 9 4 f f 6 g 7 f / h f f 9 4 4 9 f i / j / f i k k ( { { a b { > { d d c f l / f m n f f 9 0 4 9 f / f j / f i ( ( 0 4 { { b o ",
"@ 0 ( j p q q r g f 7 6 j i i i f f j f 6 i p 0 { | / ( c d { { { d ( l / p s t n f 7 u v i l i f f j f i i q 0 ( | w ( { d b e ",
"x l ( p q / f y u 7 7 r i 6 q i n m q 6 i s q 0 { ( / / c { { > / / p s s s u u 7 7 u r 6 i q i z f q 6 i q q 4 9 { m / ( b b e ",
"9 l h 6 t s q q u 8 n 7 7 i 6 7 i 7 i 6 6 7 f i 4 { f p f / q i 6 6 6 7 7 r 7 7 s 8 n 7 7 6 s 7 i i i s 6 m 7 i c 4 m g / > A e ",
"B ( n 7 f s q f s r 7 6 s 6 i 6 C i f 7 q s 7 s D E F E G E p H I I J H H H E K 7 7 7 s s s 6 s g 6 m 7 q s i s r y L 7 / d > M ",
"N z m s s s s t 7 s s 6 i i t 6 s 7 j 7 7 7 n O P Q R S T U V W X Y Z Z X X ` P  .i i 6 i 6 7 i i 7 n i 7 7 g f ..q 6 5 L 1 b o ",
"[ m s 6 6 s s i 7 u s 6 s s i 7 s i 7 s i 6 +.@.#.$.%.%.%.%.%.%.&.%.%.&.%.%.$.*.=.-.t i t 7 s s 6 i s s i t s 7 i q 0 d l / d ;.",
">.5 m i i i 6 i s t 7 i i 6 s s 6 i s 6 i s ,.'.).!.~.~.~.~.~.~.~.~.~.~.~.~.!.{.].^.6 6 6 6 i 6 6 t 6 7 7 6 s i 6 i > > ( d b o ",
"/.1 m s s 6 s s 7 6 s s 6 s 6 t 6 s s s (.^._.:.<.[.}.|.1.1.1.1.1.1.1.1.|.}.[.<.:.2.3.(.t i s 7 t 7 s i 6 s 6 s 6 / c 9 { b b o ",
">.1 m s s s s 6 s i i 6 s 6 7 i i s 6 4.=.5.6.7.8.9.0.a.b.b.b.b.b.b.b.b.a.0.9.8.7.6.c.d.e.s 6 i s 6 6 i s 6 i s i p / 4 1 { { M ",
"f.{ 5 m 6 6 i 7 s 7 6 i i i 6 s 6 s i g.h.i.j.k.l.m.n.o.p.p.p.p.p.p.p.p.o.n.m.l.k.j.i.q.r.i 6 s i i 7 s 7 s 6 6 q ....l | / A M ",
"f.4 { f q s 6 i s i s s 6 s 7 i s s.t.u.v.w.x.y.z.A.B.C.D.E.D.D.D.D.E.D.C.B.A.z.y.x.w.v.F.G.H.s 6 s 6 s i s s i q f l z h / { 3 ",
"< { 0 f q s s s 6 t i 6 6 7 s s E I.J.K.L.M.N.O.P.Q.R.S.T.T.T.T.T.T.T.T.S.R.Q.P.O.N.M.L.U.V.W.H 6 7 t i i 6 s 7 s 7 f / 1 / b o ",
"< 4 0 / q i 6 s 7 i s 6 s i t I X.Y.Z.`. +.+m.++@+C.#+$+%+&+&+&+&+&+&+%+$+#+C.@+++m..+ +`.Z.*+r.E t 6 6 s 6 s i 7 q f 0 =+f > M ",
"! 0 9 7 s s s i -+y i 7 i 6 H.W.Y.;+>+,+'+)+!+~+{+]+^+/+(+_+:+O.O.:+_+(+/+^+]+{+~+!+)+'+,+>+;+Y.<+[+7 7 7 t 6 i u 7 ..q 0 B e M ",
"< { 0 p i f q n l f f i / 7 }+|+Z.>+1+2+3+n.4+5+6+7+8+9+0+a+z.3+3+z.a+0+9+8+7+6+5+4+n.3+2+1+>+Z.V.t.6 i 7 r i 7 s 6 q f f ( A o ",
"2 { a f j -+l ( 3 - a 1 b+c+d+U.`.,+2+e+f+g+h+i+j+k+l+m+n+o+z.3+3+z.o+n+m+l+k+j+i+h+g+f+e+2+,+`.U.F.P E s s C u / ....f r z p+q+",
"3 B ~ r+s+f r+!.a { / t+u+v+v.L. +w+x+f+y+z+A+B+C+D+E+F+G+H+z.3+3+z.H+G+F+E+D+C+B+A+z+y+f+x+w+ +L.v.I+d.[+C s r 4 ( / 6 y r > q+",
"J+a { > ;.r+> K+L+( -+M+N+O+w.M..+)+n.P+Q+R+S+T+U+V+W+X+Y+H+z.3+3+z.H+Y+X+W+V+U+T+S+R+Q+P+n.)+.+M.w.i.Z+G.6 f 0 9 { l g q m > L+",
"`+c f z > c -+ @!.l w .@+@@@x.N.z.)+P.#@$@%@&@*@=@-@;@>@Y+H+z.3+3+z.H+Y+>@;@-@=@*@&@%@$@#@P.)+z.N.x.@@,@'@s f 0 1 f i 6 s s > e ",
")@c f q / p q f 9 r s !@~@{@]@^@3+)+/@(@_@:@<@[@}@|@1@2@3@4@z.3+3+z.4@3@2@1@|@}@[@<@:@_@(@/@)+3+^@]@{@5@6@q s 7 / p q 7 m p > M ",
"=+f n 7 6 6 f p 7@r 7 8@9@0@z.)+)+)+/@a@b@c@d@e@f@g@h@i@j@k@z.3+3+z.k@j@i@h@g@f@e@d@c@b@a@/@)+)+)+z.0@l@m@i 6 7 6 6 6 6 6 / > e ",
")@s 7 s s f s i f 5 f 8@n@o@p@q@r@s@t@u@v@w@x@y@z@A@A@B@C@D@)+3+3+)+D@C@B@A@A@z@y@x@w@v@u@t@s@r@q@p@o@n@E@s i s 6 g f 0 { k p+o ",
"@ s 6 s s i 8 7 7 5 f 8@n@F@G@H@I@J@K@L@v@M@N@O@D@D@D@D@2+P@3+3+3+3+P@2+D@D@D@D@O@N@M@v@L@K@J@I@H@G@F@Q@6@s 7 6 i i f 0 9 7@b M ",
"$ 5 m 7 6 s s 6 s f 7 6@n@R@S@T@U@V@W@X@v@M@m.m.m.m.m.m.m.z.z.z.z.z.z.m.m.m.m.m.m.m.M@v@X@W@V@U@T@S@R@n@8@6 s i 6 m i ( > d A e ",
"^ 0 / 8 g s i i s 7 i 6@Y@R@Z@`@U@ #.#X@v@+#@#s@##G@G@G@G@G@G@G@G@G@G@G@G@G@G@##s@@#+#v@X@.# #U@`@Z@R@Y@8@s 6 i s 7 p / > d > e ",
"< 4 0 k $#6 7 s s i i E@Q@R@Z@`@U@ #.#X@%#&#*#=#-#;#;#;#;#;#;#;#;#;#;#;#;#;#;#-#=#*#&#%#X@.# #U@`@Z@R@n@6@i 7 s s m z / { d b o ",
"< { a { 6 q i q s 7 i 6@Y@R@Z@`@U@ #.#X@%#&#>#,#'#)#!#~#{#]#^#/#/#^#]#{#~#!#)#'#,#>#&#%#X@.# #U@`@Z@R@n@E@i s 6 i / p f { d b e ",
"= k d { p p ..7 s 7 6 6@Q@R@Z@`@U@ #.#X@%#&#(#_#:#<#[#}#|#1#2#3#3#2#1#|#}#[#<#:#_#(#&#%#X@.# #U@`@Z@R@n@E@s t 6 6 s ..f d d b e ",
"!.a > 4 / ..z i s i 6 6@Y@R@Z@`@U@ #.#X@%#&#(#_#:#4#5#6#7#8#9#0#0#9#8#7#6#5#4#:#_#(#&#%#X@.# #U@`@Z@R@n@6@7 i 6 i q i 0 > c K+e ",
"J+c 4 f s 7 s 6 6 i s 6@Q@R@Z@`@U@ #.#X@%#&#(#a#b#c#d#e#f#g#h#i#i#h#g#f#e#d#c#b#a#(#&#%#X@.# #U@`@Z@R@n@6@i i s s s / { d A A M ",
"f.1 9 / g 7 i i 6 t 6 !@Y@R@Z@`@U@ #.#X@%#&#(#j#k#l#m#n#n#o#p#q#q#p#o#n#n#m#l#k#j#(#&#%#X@.# #U@`@Z@R@n@6@s s s 7 6 / 4 { { p+o ",
"2 0 0 i i s 6 7 t 7 s 8@n@R@Z@`@U@ #.#X@%#&#(#j#r#s#t#u#u#v#w#x#x#w#v#u#u#t#s#r#j#(#&#%#X@.# #U@`@Z@R@Y@!@s s r i i ..( b { p+e ",
"2 1 f y r C 7 i s 6 6 8@n@R@Z@`@U@ #.#X@%#&#(#j#r#y#z#u#u#A#B#x#x#B#A#u#u#z#y#r#j#(#&#%#X@.# #U@`@Z@R@Q@!@s r 0 ( f i / { { > M ",
"^ ( f $#t t r t i i 7 6@n@R@Z@`@U@ #.#X@%#&#(#j#k#C#D#E#F#G#H#I#I#H#G#F#E#D#C#k#j#(#&#%#X@.# #U@`@Z@R@Q@E@s f 0 { { f u { 0 > e ",
"4 ( g 6 r t i 7 6 s 6 6@Y@R@Z@`@U@ #.#X@%#&#(#a#J#K#L#M#N#O#P#Q#Q#P#O#N#M#L#K#J#a#(#&#%#X@.# #U@`@Z@R@Y@8@s 6 f 0 1 m u f { b ~ ",
"=+f h i r C q 7 6 7 t 8@n@R@Z@`@U@ #.#X@%#&#(#_#:#R#S#T#U#V#W#X#X#W#V#U#T#S#R#:#_#(#&#%#X@.# #U@`@Z@R@Q@E@s s s / / L u | 0 b e ",
")@j f i n 7 m s t t 6 E@Y@R@Z@`@U@ #.#X@%#&#(#_#Y#Z#`# $.$+$Z#X#X#Z#+$.$ $`#Z#Y#_#(#&#%#X@.# #U@`@Z@R@n@6@i 6 s $#m L 5 | A A 3 ",
"@ m 8 7 6 s s 6 s i 7 E@@$R@Z@`@U@ #.#X@%#&#(#_#Y##$$$%$&$*$=$X#X#=$*$&$%$$$#$Y#_#(#&#%#X@.# #U@`@Z@R@n@-$6 s 7 / p 0 d l / p+;.",
"] 5 m 7 6 7 6 i 6 i s 6@n@R@Z@`@U@ #.#X@%#&#(#_#Y#<#;$>$,$'$<#X#X#<#'$,$>$;$<#Y#_#(#&#%#X@.# #U@`@Z@R@n@8@s 6 i 6 / > > ( d > o ",
"/.1 f 6 s i s s 6 s i -$@$R@Z@`@U@ #.#X@%#&#(#_#)$!$~${$]$^$/$($($/$^$]${$~$!$)$_#(#&#%#X@.# #U@`@Z@R@Y@E@6 6 t 6 / ( 9 { > b o ",
"^ 1 f 6 q s q s s 6 7 E@Y@R@Z@`@U@ #.#X@%#&#(#a#_$:$<$[$}$|$1$2$2$1$|$}$[$<$:$_$a#(#&#%#X@.# #U@`@Z@R@n@!@t s 6 6 p l 4 0 { { M ",
"! 0 5 f s 6 i 7 6 s i 6@Q@R@Z@`@U@ #.#X@%#&#(#j#r#3$G#4$4$5$6$7$7$6$5$4$4$G#3$r#j#(#&#%#X@.# #U@`@Z@R@Q@!@s 6 7 s p / l | / > M ",
"! 4 0 f q 6 6 7 i s 7 6@Y@R@Z@`@U@ #.#X@%#&#(#j#r#8$9$u#4$0$a$x#x#a$0$4$u#9$8$r#j#(#&#%#X@.# #U@`@Z@R@n@-$6 t i q f l z w | A 3 ",
"< > 0 f q s s s i 6 6 !@n@R@b$c$'#V@W@X@%#&#(#a#d$e$f$g$t#h$i$j$j$i$h$t#g$f$e$d$a#(#&#%#X@W@V@'#c$b$R@n@8@6 6 7 s 7 f / 1 / > o ",
"< { 0 m q i i s s 6 s 8@@$R@k$l$m$n$K@L@%#&#(#_#o$p$q$r$s$t$u$v$v$u$t$s$r$q$p$o$_#(#&#%#L@K@n$m$l$k$R@n@-$6 s i 7 q m 0 =+f b M ",
"< { 0 7 7 7 j 7 i 7 6 6@Q@w$x$y$z$w@A$u@%#&#(#_#Y#<#B$C$D$E$F$X#X#F$E$D$C$B$<#Y#_#(#&#%#u@A$w@z$y$x$w$@$6@s s 7 s 7 i s 0 !.e G$",
"^ 9 0 i j s t 7 6 6 i H$I$J$K$L$M$N$x+u@%#O$P$Q$R$S$T$U$V$W$X$Y$Y$X$W$V$U$T$S$R$Q$P$O$%#u@x+N$M$L$K$J$Z$8@m 7 i 6 q q f f ( b o ",
"} { 0 7 s s 7 s t s 6 `$ %.%+%@%#%f+$%%%&%*%=%-%U@;%;%;%;%;%>%;%;%>%;%;%;%;%;%U@-%=%*%&%%%$%f+#%@%+%.%,%'%i t q m / 6 f i -+d q+",
"^ 1 i f m q i q i 7 s )%!%~%{%]%^%/%(%_%:%<%[%}%|%1%1%1%1%1%1%1%1%1%1%1%1%1%1%|%}%[%<%:%_%(%/%^%]%{%~%2%'@i i r { ( / 6 t r > e ",
"^ 4 6 q m q g 7 6 i t t.3%4%5%4%6%5%7%4%8%9%9%9%9%9%9%8%9%9%9%0%8%9%9%8%a%8%8%a%8%9%9%8%4%5%9%5%5%9%4%b%c%q l 0 a { / g q m > L+",
"`+0 m q 6 s s 7 s s 7 d%e%f%f%g%f%g%f%h%f%f%i%i%g%j%j%j%k%k%j%j%l%m%g%n%n%m%g%n%l%o%g%o%o%f%g%f%o%k%f%m%p%g ..c 1 f i i s 6 9 e ",
"q%( m 6 s i 6 s i 7 t i s 7 s i 7 s i s s i 6 s s t 7 q q i f c 5 m s s i 6 i 7 5 m s s 7 6 t 7 6 8 6 p /  @l ../ p q m m p > M ",
"=+( g m q s t i 6 s 6 s 6 i s 6 i s 6 6 s 7 s 6 s t 7 i s / c 9 0 f s q 6 s i r 0 f s s i i s i 6 m m / ( 4 0 l 6 6 6 6 6 / > o ",
"r%s%6 i s i s 7 u r i / c c d d 6 7 7 p p / i s 7 7 6 6 i f ( { f s i 7 s s 7 6 m { m 7 5 m y i 8 7 / / { b d c 7 6 i 0 1 k > e ",
". s 6 / 6 t s r u 8  @0 > > a { 7 6 8 p 6 $#6 6 n 6 i i 6 -+/ l t C 6 f s s i s / { 0 { f g r C 7 7 8 / ( d { > s s f 4 { c p+o ",
": 7@..-+y q u C s q y 9 { ( { / 7 8 $#k f / 6 6 6 7 m ....l ( p+0 f / / q s t t 7@!.( / j z f i m u / m l l k 4 i m 6 1 { p+A M ",
": { / q p q r u s f q 0 1 6 m j 7 / k ( { ( m 8 7 s g h / c { > { l w -+s 7 7 s -+~ f w 7 f C y L m k ( 1 f 6 / 6 7 j f c d > M ",
"} 9 1 5 m i 7 8 q 4 $#/ m 8 m m k c { > > > ( / 7 m m 5 0 > 4 { { ( k f m 7 g 8 k t%f / m 6 L k ( c > > { 0 l g $#f 7 0 4 > b e ",
"`+{ > 4 ( y 6 6 c !./ / / m m 1 c d { d d { d / f 5 0 0 > { A 4 > { { c ( i i ( t%a w / 8 w / d 1 > d d { d ( ../ 0 5 0 c c b e ",
"J+c > u%b > p+b - e a a { > 4 a a a b A A b > d { b b b A d b a b b b > > > b - ;.b d a > > A A b b A A A b d d > b K+b p+b K+L+"};
