/* XPM */
static char *d5671f59ec884936aa79ca980a78ebc2X7T9KF7A6tgwUKhE[] = {
/* columns rows colors chars-per-pixel */
"64 64 146 2 ",
"   c #373529",
".  c #3A352E",
"X  c #3E3C2C",
"o  c #363432",
"O  c #3A3633",
"+  c #3D3935",
"@  c #373538",
"#  c #3B3738",
"$  c #3E3A39",
"%  c #403A2E",
"&  c #433D35",
"*  c #413D39",
"=  c #3F4030",
"-  c #454135",
";  c #494537",
":  c #45423A",
">  c #4A453A",
",  c #4D493A",
"<  c #514B3B",
"1  c #524F47",
"2  c #524D49",
"3  c #565346",
"4  c #5B5646",
"5  c #5C5B47",
"6  c #56534B",
"7  c #5A564B",
"8  c #5D5A4C",
"9  c #575651",
"0  c #5A5751",
"q  c #5E5A51",
"w  c #625D4C",
"e  c #625E51",
"r  c #685E54",
"t  c #64614E",
"y  c #68634D",
"u  c #656152",
"i  c #6C6655",
"p  c #6E6956",
"a  c #676558",
"s  c #6D6659",
"d  c #6E695A",
"f  c #706756",
"g  c #716A57",
"h  c #72695A",
"j  c #706A5A",
"k  c #716A5A",
"l  c #736A5B",
"z  c #726B5B",
"x  c #726B59",
"c  c #746B5A",
"v  c #716C58",
"b  c #716C59",
"n  c #736C59",
"m  c #726D59",
"M  c #736C5A",
"N  c #726D5A",
"B  c #736E5B",
"V  c #746D5A",
"C  c #756C5B",
"Z  c #746D5B",
"A  c #756E5B",
"S  c #766E5B",
"D  c #71695C",
"F  c #726A5D",
"G  c #746B5C",
"H  c #706D5C",
"J  c #726C5C",
"K  c #736C5C",
"L  c #736D5D",
"P  c #756C5D",
"I  c #746D5D",
"U  c #756E5C",
"Y  c #746F5C",
"T  c #766F5C",
"R  c #776F5C",
"E  c #766F5D",
"W  c #746E5E",
"Q  c #756E5E",
"!  c #766F5F",
"~  c #726B59",
"^  c #75705A",
"/  c #73705F",
"(  c #75705C",
")  c #77705D",
"_  c #74725D",
"`  c #77725F",
"'  c #75705C",
"]  c #78715E",
"[  c #746E60",
"{  c #786F60",
"}  c #767060",
"|  c #777060",
" . c #777161",
".. c #767161",
"X. c #797260",
"o. c #787262",
"O. c #7B7462",
"+. c #797261",
"@. c #7A7967",
"#. c #7D7C6D",
"$. c #7E7B72",
"%. c #867E67",
"&. c #827D6B",
"*. c #847E70",
"=. c #7F8070",
"-. c #82816C",
";. c #84816E",
":. c #84836E",
">. c #85826F",
",. c #85846F",
"<. c #86846F",
"1. c #84826E",
"2. c #89846E",
"3. c #848371",
"4. c #878173",
"5. c #868372",
"6. c #858470",
"7. c #878471",
"8. c #868573",
"9. c #848075",
"0. c #858374",
"q. c #858376",
"w. c #868276",
"e. c #868573",
"r. c #888370",
"t. c #888572",
"y. c #898673",
"u. c #888773",
"i. c #888574",
"p. c #888775",
"a. c #8A8774",
"s. c #888775",
"d. c #8A8873",
"f. c #8D8970",
"g. c #8C8A73",
"h. c #898874",
"j. c #8A8977",
"k. c #8B8877",
"l. c #8C8976",
"z. c #8D8C77",
"x. c #8C8976",
"c. c #898778",
"v. c #8C8B79",
"b. c #8C8A7B",
"n. c #8E8C7B",
"m. c #928D79",
/* pixels */
"g.:.l.;.7.m.2.f.$.:   7 b.0.0.j.a.0.b.7.X 8 3.j.8.a.a.d u q.q.: 7.8.j.8.8.j.y.:.$.:   7 b.7.0.c.j.8.z.8.X 8 :.j.:.d.8.H t =.q.= ",
"d.t 5 t y b g ^ u 8 8 4 u 8 t w 5 w 5 w 3 t t 8 u 5 8 7 6 u u 6 5 8 w 8 5 w u y u 8 8 7 u 5 w w w 8 5 w 4 w t 8 y t 5 5 3 e q + ",
"a.4 5 i i b ( g i d | i i 4 5 5 4 i h d o.d i h a a u 8 8 3 6 8 7 8 q q e i s d i p ] i i 4 w 5 4 i d i o.d i h u u w 5 8 8 6 $ ",
"l.w u o.K I I f ( i g b o.h h h i i o.i b h K w 8 H d u e q 8 8 8 q u s d K n c ] i g v O.h s h i i o.i h h I w u H ..u 8 q 6 + ",
"4.s u K I d i G v g g f h b I h ] p I b h n I w 8 u d d e 8 8 7 d d K n n n v v g g v f b h I h { i I b h I I 5 4 8 p d u 6 6 + ",
"4 s | b c n I I v ^ ] g g h b g h g h b b g i h 5 8 i K i d I h b b b g g f g g n ^ ] g g b n g h h h n b p g h e 5 p ( d 7 9 + ",
"; u ] g i n I i n f g b n b h b R h i g I n g n d n ( n h n I g b b c g g g n S g g g n n n b n ( b p g I n h n f G _ g d q 7 O ",
"*.{ p n n n n c g n n b h h c b n g o.g g g ] i n h f h n b g R c j G G c c c n g h h b h b g h h g ] h g g ( i j I b y _ t 6 $ ",
"z.p n b b n n h g v n b n n h g n h g n h b n h b b b n b b b n h b n h b n b g n b c h c g n n b h n n h c n g h I w q s d q o ",
",.y p h h h b h n c g h h b n n b h n b h n b n c h c b c h c b b h n b g h c h b n b b b b h b b c b g g b n h b h 7 7 u q 6 $ ",
"-.t p n n b n n g b n n b n b c b n n n g n b g g n g n g n g n h n h b b c h n n g c g c h n g c g n h b n b n b d e 4 8 6 6 $ ",
",.t p n n n n b n h h b n b g h h n b g n b c h b h h n b h h n g b h n n n g b b h c b b n b h n b b h n b h n h K d 5 t 8 8 O ",
"h.8 y p b b h g n g b h h h b n b n h h n b b n n n b n b c g b n n b n h g n h n b n b c h b n h h g n g n b b I j j s H d 9 O ",
"h.5 8 i I n b h n h n n b n g h n g b n h h n g h g c b b h n h c b h n n n b h h c b n b g h n b n b n h n n h I i s { | d 8 = ",
"c.8 w i I n n n b c h b b g n n n h b h g n n h b h h g b c h c h n b b b g b n b g b g n h b g b g c h h b n g n g i d t d 6 $ ",
"c.5 w d I h b n g h n b n h c b b h n n b n b h n n b n n b g b g b n h c h n b b c c h b c b c n c b b n b n h g I i w , i 7 O ",
"a.w 4 g n n n h [ G h g h b h b h b b c h c g n g b c n b n b n b n c b g h n b n b g h b g b h g c g g g c b h v g j I w ; + O ",
"c.8 w K h i I ] s i i h d g c g c b n b b b b h c b h g c b n g n g h g n c b g h n b c n c b c h b b h g f h g n b I i i u 9 $ ",
"=.8 3 i o.[ s u = : 3 t w r c g g b n n b n n h h b n g h c g h h b b c b n c h b n n b h b n b g b n n n n R v d j j i f { 0 # ",
"= ; X & F i & > 3 8 d d i s g g n h h g c b n g c b n h b b b c h n b h c b b n b h n g h n n g g h c b c R n f 5 u d b G f 7 # ",
"#.3 8 7 o & 7 2 * u [ d j { n ] h n n b h b n h g b n n n b c b b g n b c h b g n n n b b n h h n b b h b b i w 4 8 s ( I p 7 * ",
"n.e i { 7 e [ D > s ..i K G i g b b h n g n n b c b h b b g h n n h b n b n b c h g h c g c b n n h g g n n i w t i h b n n 7 + ",
"&.e i I d K I i 4 f n g I I h b n h h g b n h b h b n g n h g n h n c h g b n g b h g b b b n n h b h h n I n g d K I g p K 7 O ",
", i ] g b b i K r f g h b I b h n g c b n g h n c b n h n b h n b b n g h c b c b c b n h c b g b n n g g h b g b b b b b d 7 + ",
"&.n g n n i n h i y i h n b n I b b n h b n h h g n h b n h b b n h b n h h g n n h b g n n n h h n n b b n h n b ( i w 8 a 0 $ ",
"l.n b n n h ^ g g y i h n g n b n h n g h n b n n b h n b n n h n b n g b n n b b h n h n b b h g b h h n n g b h h i w 4 r 6 O ",
"7.y p g b n n b n i g n n h b b h n n b n b c b b h g n g b n n h b n h h n h b b n n b h h g n n n b n h b n h b p h u 7 q 9 + ",
"8.w d ^ ( n h h n g h n g h n h b b h n b g h n n n b n h c b g g n b c g b h n n g h h b n n b n b n g h n b h n g K d 7 q 7 + ",
"c.5 w a / b g n n h h b h g n b n h n h b n g n h b n b n h n h g h n b n n h b h g n n b n h n h h g n n h g n n p { d 8 q 6 $ ",
"c.8 3 8 b I h I n g h n g b n g n g b n g h h n h n n g n b b h n c b n n b h n n b n b n n g b b n n b b h n b h d K i 8 q 6 + ",
"$.a q 8 K K j g n g b n h b n h b b n n n h b b g n h h h b n n b n h g n b g n n h b n h b n h b n h b b n c b b n j i q q 6 + ",
"> 3 7 5 d j { h n h b n g n I g n h h g b n n h n b b n g n h b b h n b h h n b b h n g h n b h n g h n n g h b h I h w 7 e 2 + ",
"#.e 5 i n g n b b h n n h c n g n b h n n b c b n n n b n b c b n h h b n n b n g n b b n h b n h h g n n h h n n n d 8 q 9 9 O ",
"h.t 4 d ( g h h b c b g g b n h b n g b b g h n b g h h b g h n n g n g h g b h h c n h n b n g n b g b n n n n g b d 5 8 8 0 $ ",
"=.w w h h n b g c g n h b n b n c h n h c h c g c h b n c h n b b c h c n g n h g b h c h b n h b n n g g n n f h h j u 6 8 0 + ",
"=.t i G f R g h n b b h n b h n b b g c b b b b b b g c b b g h n b b b n h n b c b b b g n b c g n b h g n f w u i h d 8 8 7 O ",
"8.u i / c c f c h h g n b n b b c h b n g b n h c c h g b b c c g h h n b b n h n h g n b h h n f n n h b n i w 8 8 i v 8 w 7 + ",
"5 u ( b f c h g b n b n g h n h g n g h h c b c g b b n h c g b n n b b n h n g b h n b n n b b h n b g h n b i w t p v i 8 6 X ",
", i | h f R I g b g c h b c b h g h n b n b h c c b n b n b h c b n n n b h b n b n c b h g g n n b h h b n n n d d _ v H w 6 + ",
"&.o.i h ] g p n c c b b g c b c n c b n b n g b g b h c b n g b b h g h n n b h n g h n b n h c b h g n n h b n / p _ y H 9 9 = ",
"l.p ^ g b n n b n h g b c h n b b n c h g n h b b c h n b n c g n n n b c h g b n n h b h g n b b h n b c b n g d K w q s d 0 o ",
"3.y p g b g b h b h n n b b n g b h b n n b h n n n g b b h b b h g h n b n b n h b h n n b b n b c b n h n b h b d 7 7 u q 7 $ ",
"-.t i b n h n n b n h c c n h h n n h b n b b n h g n b n n n h g h b n g n h n g h g n n h b n c g h g b b b c b d u 4 8 7 6 $ ",
"8.t i b I n I n n b g b g b b n h b g n h n g h n b h h h g b c n n b h h n b b b c b n b h n g c b c b g c n b b K s 5 w 8 8 O ",
"a.w y i n b h g b n h n h n n b b n h n b g n n h g b n g h h n b n c g b n c g n b n b c h c h h b n h g n b g n K d s H d 7 O ",
"a.5 w i I b b g h n g n g b h h n n g b n h n b c b n b n n b n b h b b b h b b h c b g b b b n g n n b c b c h I i s { ..H 9 = ",
"c.7 w i I n n n h b b g n n b n h b n h h n h b n n b h b n c g n n n h n n n h b g n h c b c b b n h b h b b g n g i d t d 7 $ ",
"c.8 w p I h h n n b n h c b n g h n b n g b h n g h n n b h c n h g b c h g b c b c b c g n h g n g h n c b n h g I p w , i 6 O ",
"c.8 w g g g o.g h g b n h b n h c h b g b n c g b n b b h g n v n n n n h g n n g h n n b g c n c h g c n n n g n g h n w > + @ ",
"8.4 w h o.n c g b b h n g n n b b n b c b h b b b b I n n n n n h b h n b h n n g h I n h h g n n g g h h p g h b I I i i u 6 $ ",
"d.8 w g n n g n c n b b h n h g g n h n n n n h b b n n b n n b g g h b b b h g b h b n b n b g n h n n n h c I p d b i h [ q # ",
"8.t h i p I h I h g n h b b n n h n b b h g b c h b h b g g h h c b n b g h n b b b n g g h b h b n n n n h h f 8 u d b c f 7 + ",
"8.5 b I p I ( g b h c b n n h g c h b g h n n b b n b h b b b j h n n h g h h g h n n h g h n h h n b p h I s w 3 8 d ( I p 7 * ",
"n.w p I b n n g n n g b h b b n b n b c b b h h n h h h I I h h p b n g g b n g p g n g g b n b g I b b K ( j e t i h h n b 4 + ",
"@.u p b n h b n h g c h n g n h g n h n n h b n n c g I I h i e y p n n h b h g y p n n g b c g b ^ b K d D s j d K I p p K 7 O ",
", u ( p I n c h b n b n b h n b h n b b n g n b n c g h n d e 4 w i n I b n h f w i n n h h n h b p p d u 5 w s b b b b b d 7 $ ",
"%.) b h n h n g v f h d e e q q b g g K K d h n g g b b h i u 8 i n h g n n g b p 8 p g y p G h ^ g d d 8 6 q e g b h w t a 7 + ",
"g.n b d b c n f v ^ D w 7 7 3 8 g b ^ K b / b b ] b h h b [ d s c R b i n n h n d 8 w 8 i ( f R g g ^ d u q 8 7 n n i 5 8 e 0 $ ",
"y.r j [ G I v R n I G 4 8 u 8 d g ^ / a i d b b b g p j j s u 0 w i d d I n c c r > u d o.{ i h p v d p s s a 5 h p b t 8 0 9 O ",
"y.8 d I K I f v n i I w t b p o.g d a u 8 u p ^ g n ( | d e 8 7 8 s ..[ n g g n [ X i ..g i R G _ p a u t i b d b g o.i e q 7 O ",
"d.4 t y p h g ^ I 5 / d p ^ p p a e 8 7 7 7 u d g p p y w 7 5 8 8 u a i p g ( ^ a - i d p b _ a u e 7 7 8 w s ( / i g w 5 7 6 + ",
"n.8 7 5 u G b b e > d d d p p t e q 8 q q 8 q d i y w w 7 8 9 5 7 8 8 e u h h u - 3 ..d ^ ..d q t 7 q q 8 q u j d w y w e e 6 + ",
"#.e 7 1 6 7 0 6 : + 3 3 8 7 5 3 3 3 6 9 9 6 7 q 8 6 6 6 9 q 6 3 6 6 6 7 7 7 6 : o 6 q 3 7 7 9 9 6 6 9 9 9 6 q q 7 6 2 6 0 6 2 * ",
": O + O $ O + O o o : . $ o $ @ + + O $ O + O O + + $ $ # O O + + + $ + o $ $ . O $ o + = o = $ + + + + o + + . # # * o & O * o "
};
