/* XPM */
static char *a2dbd0b85c9a43d7dc58e06cd47543052rW5aue5wXd4CZPb[] = {
/* columns rows colors chars-per-pixel */
"64 64 241 2 ",
"   c #010101",
".  c #0A0101",
"X  c #020A02",
"o  c #0C0A04",
"O  c #02020A",
"+  c #0A020B",
"@  c #030A0B",
"#  c #0B0B0C",
"$  c #140202",
"%  c #130C02",
"&  c #1A0A08",
"*  c #0D1206",
"=  c #151202",
"-  c #1B1403",
";  c #1B140B",
":  c #171609",
">  c #060613",
",  c #131313",
"<  c #1A1B1A",
"1  c #181717",
"2  c #110D12",
"3  c #290403",
"4  c #320402",
"5  c #221400",
"6  c #241C01",
"7  c #2B1D01",
"8  c #23160A",
"9  c #331B02",
"0  c #251B16",
"q  c #0E231A",
"w  c #2B2203",
"e  c #272304",
"r  c #352501",
"t  c #3D2502",
"y  c #3C2A01",
"u  c #382905",
"i  c #3B3205",
"p  c #292417",
"a  c #352B18",
"s  c #3A331C",
"d  c #181B22",
"f  c #0F1923",
"g  c #272627",
"h  c #33332D",
"j  c #3B3B3B",
"k  c #363835",
"l  c #2F322E",
"z  c #1F1F24",
"x  c #4B0102",
"c  c #540201",
"v  c #5C0202",
"b  c #55050A",
"n  c #4D190A",
"m  c #690305",
"M  c #7B0F0A",
"N  c #422B02",
"B  c #442A04",
"V  c #493604",
"C  c #583903",
"Z  c #473818",
"A  c #502E10",
"S  c #613801",
"D  c #433D32",
"F  c #3C403F",
"G  c #5D4400",
"H  c #564713",
"J  c #6B4D01",
"K  c #664904",
"L  c #774C03",
"P  c #675301",
"I  c #7C5202",
"U  c #745803",
"Y  c #675517",
"T  c #4B422E",
"R  c #5C4D2B",
"E  c #584825",
"W  c #5D532D",
"Q  c #5A4D33",
"!  c #5C5131",
"~  c #614C2B",
"^  c #61512D",
"/  c #786103",
"(  c #3E3C42",
")  c #3D4341",
"_  c #434342",
"`  c #4C4C4C",
"'  c #474946",
"]  c #494E53",
"[  c #565859",
"{  c #4F4E4E",
"}  c #6D5C53",
"|  c #5D645B",
" . c #6D6755",
".. c #645E65",
"X. c #686767",
"o. c #747373",
"O. c #797C7B",
"+. c #706E6B",
"@. c #5F5E66",
"#. c #950E0C",
"$. c #A70103",
"%. c #BA0303",
"&. c #BE1519",
"*. c #9A3217",
"=. c #CC0200",
"-. c #C60106",
";. c #D40201",
":. c #DB0102",
">. c #D4030A",
",. c #D90607",
"<. c #DB1604",
"1. c #D21414",
"2. c #E40102",
"3. c #E70307",
"4. c #FB0203",
"5. c #F9050A",
"6. c #EF1614",
"7. c #D82A0A",
"8. c #E42C04",
"9. c #E13106",
"0. c #D53133",
"q. c #F53B3C",
"w. c #DC1822",
"e. c #845804",
"r. c #874E0C",
"t. c #836401",
"y. c #8C6401",
"u. c #8C6A00",
"i. c #876A05",
"p. c #946805",
"a. c #957406",
"s. c #BB7B02",
"d. c #B87609",
"f. c #A77409",
"g. c #D75A02",
"h. c #E64B02",
"j. c #E85404",
"k. c #F54705",
"l. c #C37C05",
"z. c #D17E00",
"x. c #F77603",
"c. c #E96904",
"v. c #D63B43",
"b. c #E13A44",
"n. c #86777B",
"m. c #A65A54",
"M. c #D9575B",
"N. c #C0474E",
"B. c #D27172",
"V. c #EC635F",
"C. c #7E807F",
"Z. c #AF8507",
"A. c #C98605",
"S. c #D68905",
"D. c #DA9504",
"F. c #CB910C",
"G. c #F48204",
"H. c #E79306",
"J. c #D9AC00",
"K. c #E8A802",
"L. c #F7A904",
"P. c #F3BC01",
"I. c #FDBB03",
"U. c #F9B405",
"Y. c #F0B806",
"T. c #FBC301",
"R. c #FFC40B",
"E. c #958069",
"W. c #E1877F",
"Q. c #777A83",
"!. c #7D8685",
"~. c #898888",
"^. c #8C938C",
"/. c #958D96",
"(. c #969697",
"). c #8E9191",
"_. c #AA8983",
"`. c #9EA5A5",
"'. c #A5A4A4",
"]. c #AAA8A9",
"[. c #B3AAAB",
"{. c #ADAEB4",
"}. c #B3ACB2",
"|. c #AEB5B4",
" X c #B3B3B4",
".X c #B6BBBB",
"XX c #BCBBBB",
"oX c #B9B9B8",
"OX c #B1B9AD",
"+X c #ABA19F",
"@X c #CF9E9A",
"#X c #F78D8A",
"$X c #C9A49B",
"%X c #C2BCBD",
"&X c #C4B5B8",
"*X c #D1BFBD",
"=X c #F4B6B1",
"-X c #BCC2BD",
";X c #B7C2B9",
":X c #C1C2BE",
">X c #F7C4BB",
",X c #BCBCC4",
"<X c #C5BDC3",
"1X c #BCC2C3",
"2X c #B9C6C7",
"3X c #C3C3C4",
"4X c #CCCCCC",
"5X c #C7C6C9",
"6X c #D5CBCC",
"7X c #CBCDD3",
"8X c #D4CCD6",
"9X c #D4D3D3",
"0X c #DCDCDC",
"qX c #D7D8D6",
"wX c #CED4D1",
"eX c #E4DBDA",
"rX c #E7D0D1",
"tX c #D9E1DD",
"yX c #E7E5DC",
"uX c #F0EADA",
"iX c #D9DCE1",
"pX c #E5DDEA",
"aX c #DCE2E6",
"sX c #E4E4E4",
"dX c #EAEAE6",
"fX c #EBEBEB",
"gX c #E6E6E8",
"hX c #F5E9EC",
"jX c #EAF3EC",
"kX c #F3F3EE",
"lX c #FAF9EC",
"zX c #F6ECF4",
"xX c #EDF3F3",
"cX c #ECF8F8",
"vX c #F5F5F5",
"bX c #F5FAF6",
"nX c #F5F5FB",
"mX c #FBF4FC",
"MX c #FAFBFB",
"NX c #F8F9F7",
"BX c #EBEBF3",
/* pixels */
"                                .         O           . + + .                     . #       O                                   ",
"                                    O   .     + . O . 1 ] ] ` ] ` ` ` ` ` ` ` ` ` _ O         .                                 ",
"                                . O   .     + . o @ + l `.2X1X&XXXXX.XoXXX3XXXXX:X).#   2 o . @     .                           ",
"                                .     . X   m $.#.n.(.^.*X&XoXoXXXXXoX,X9X0X0XsX0X4X]. X].|.].'     O     O .                   ",
"                                .     3 3 x $.<.1.$X<X.XXX;X1X*X3X3X3X4X0XfXsXfXkXfXfXvXfXjXfXo.j ) 1 .                         ",
"                                X     m >.;.;.=.1.$X1X<X.X.X7XgXsXfXgXsXfXfXfXvXvXMXnXvXmXvXbXvXkXtXg                           ",
"                                  O O m ;.;.=.;.,.v.N.B.6XqXeXfXfXfXfXfXfXfXvXvXvXvXvXvXvXvXmXvXMXsXg                           ",
"                                : < 1 M 1.1.>.=.;.>.=.0.rX6XrXfXfXsXfXfXvXNXMXvXMXvXvXvXMXvXvXvXMX0X_ z < #                     ",
"                                k ].+X].[.@X0.-.;.;.;.>.w.w.B.gXhXjXcXmXnXjXNXmXvXvXNXvXvXvXbXMXMXxXyX0XOX2                     ",
"                                ) &XXX:XXX&XW.M.M.w.,.;.=.2.M.fXpXxXlXkXnXNXbXxXvXnXvXvXvXvXvXvXvXvXvXMX3X2                     ",
"                                j oXoX.XoX,XeXyX0Xw.;.,.;.,.M.yXyXzXzXlXnXnXvXlXvXnXMXvXmXbXvXvXMXvXvXMX5X,                     ",
"                                ) .XoXXXXXXXiXjXrXw.,.>.:.:.w.q.q.=XbXmXnXnXbXvXNXvXvXNXvXMXvXMXvXnXbXMX3X2                     ",
"                                j .XXX%X%X%XqXgXeXM.0.0.2.,.2.4.4.V.rX=XhXmXMXmXvXvXvXvXvXvXvXvXvXvXvXMX3X2                     ",
"                                ( oX%X XoXXXtXfXyXyXsX=X5.5.3.;.3.,.5.6.=XvXvXvXmXvXvXvXvXvXvXvXMXvXvXmX5X,                     ",
"                                _ .X-X!.` ` OXfXfX7X5X6X#X#Xm.v v $.3.6.@XrXqXxXNXvXjXvXxXfXhXvXfXxXbXMX3X#                     ",
"                                h `.].[ 1 0 |.fXsX&X%XXX7X7X~.z d M -.%._.[.OXgXvXfXgXdXgXsXsXsXfXdX0X0X X#                     ",
"                                + , < o.wX9XeXsXsX1XoX(.g < X.sXpX} $ . 2 f l |.1X0XvXNXqX-X-XaXmXsX_ z < 2                     ",
"                                      o.fXfX0X0XqX7X6X'.O X X.MXmX'.X.X.< . o | +.~.0XeXqX9X5XgXvXaXg                           ",
"                                      O.sXiXXX{..X0XjX}.% O X.lXMXlXMXmXk $ + > O ) oXXX4XfXkXeXaX7Xg         O                 ",
"                                      l _ j h h _ 7XhX=X#.$.&.b.b.b.b.v.E.^.).~.~.'.dXgXvXvXfXC.k j < .                         ",
"                                  O   @         * (. X_.1.:.,.,.;.w.0.b.@XoX-X6X6X0XvXvXNXkXbX] X           .                   ",
"                                    .           .   2 3 -.2.:.;.>.W.tXsX2X-X-XjXxXvXvXMXNXNXbX{   .           .                 ",
"                              .             X.).(./.).+.v v x x c _.cXBXeXeXyXvXMXbXvXvX[.X.X.0 . .   . X                       ",
"                        . o % & - - : %   .  XMXMXMXMX6Xg 1 z < z ~.4X4X9XiXiXiXqX0X0XeXo.. $ $ + $ < 1 < #                     ",
"            @       + .   - d.s.A.K.J.J   O |.MXMXMXvXfX0XeX0XqXtXX.1 < 1 1 < < < 1 q d m %.%.=.%.1.<X8X].#                     ",
"  O   O     + .   X   . O - K e.p.L.K.f.P K E.).(.fXNXMXvXvXvXMXNX^.` ` ` ` { @.X.[ ' { *.3.3.3.,.,.B.#XB.@   >                 ",
"                +   @ . > O o O B A.A.D.R.U.V O < 4XNXvXvXvXMXvXvXqX%X:XXXoX4XfXnXsX5X<XB.5.5.5.4.4.;.:.#.. .                   ",
"O       O O .         O./.^.~.(. .B r Z.T.I.V   , ].4X9XgXfXfXfXfXfXsXsXgXfXtX9X4XqX6XiXrX=X=Xq.4.4.x 4 3     X                 ",
"    .   @ 6 V N N B V n.).).<X%X!.  O U Y.L.V   , (.oX3XfXfXgXfXsXxXMXvXvXNXfX:X&X7XdXdXfXnXbXV.4.5.3     @                     ",
"O O O .   U Y.Y.Y.R.J.u o g {.<XQ.O   L H.S.r   , ].:X5XgXsXgXsXgXvXvXvXvXmXvXXX-X2XyXdXkXcXmXq.4.:.3     .   O                 ",
"    + O   L I.I.K.H.D.p.I U { ` X.~.~.} C C } o.o..X.XXX9X4XqXfXgXfXfXvXvXvXfX3XXX5XfXfXfXhXBXm.m m n./.+.@   +                 ",
"  X .   X J I.I.J.A.S.S.S.f.o . ` yXxX+.    Q.].]. XXXXXoXoX4XsXsXsXiXyXfXvXfX3X%X4XtXpXaXyXiX]   * 3XxX;X@ .                   ",
"          L T.I.H.A.S.H.A.d.$   ` BXjX+.  . 2 1 g ].-XOX<X5X.X2X%X:X3X:X:XXX3XyXsX9X3X%X:XXXXXD O 1 1XxXOX+ .                   ",
"    O     J K.K.D.F.A.e.r.U C C Y ~.).]         , @.o.+.+.+.^.4X7X3XXXXX4X7X8XgXfXsXXXoX5X9X9X_   % %XBX4XX.X.] + O O         . ",
"+ .       K A.A.A.A.l.w O 9 s.z.U + > @   O   @     . . O . [ zXgXwXoX3X0XfXfXMXMXgXXXXXqXMXMX{   , ,XpXpXsXaX^.                ",
"O         ; t r 9 r r y.p.t.B u 7 + +             @ O       | gXfX4XoX:XtXfXjXbXbXsX%XXXwXNXbX`   X l h ( l k 0             . X ",
"      .         $   O r.f.e.. O         .       #           ' |.}.(.).(.'.[.}. X%X].).).'.<X X_         # 9 r 8 O               ",
". X O . . O O O >   .     # .     X   O O           O   . . + # #     . # # @ # O @ #   O + #     + +   5 s.S.e.. .     O     O ",
".   8 L I L I I 7 @ . K r.K o X X       O     O .     7 Y I I U I I I I I I L I I I I L e.I I e.e.J 3   # C C Z C Z w .         ",
"O   y F.D.D.S.A.C   X y.l.p.$     > +   X             9 d.l.s.s.s.s.s.s.s.l.s.s.s.s.s.s.s.s.s.s.l.f.=   O X & y u.i.V % o #     ",
"O   N P.I.K.F.S.V # + o : *     .     +             O   - * * ; : % & & * - - % = % ; & & - = ; - o +   % U e.t.u.i.t.I U 6 +   ",
"  X e i.p.t.e.r.V u t B y t t r 9 O   O     O O $ b v c v c c c c S K J c b b Y U N . O X = = % & - > O 8 t.y.i.i.u.u.p.i.e O   ",
". O > . >   . . K i.t.t.u.u.e.a.K X . O         & %.:.3.,.:.,.:.2.x.I.I.8.:.<.J.Y.Z.% O 6 y y y u r o % 7 U i.t.p.p.y.y.t.7   O ",
"    - J J P P J e.u.u.i.u.y.p.a.G     O       O   -.,.<.G.H.j.,.;.x.T.Y.8.2.-.S B y 6 e r N a - o ; '.%X(.p 7 V y.u.y.p.t.7   O ",
"O O 5 J J J K J e.u.u.y.y.t.P P V X . X   O y N N %.=.9.R.T.G.9.7.G.R.U.7.;.-.    * B B y u e a j T qXbX7X>   6 P P P K K 6     ",
"  >   . . #   X G i.u.p.u.U % X .   +   o . Z.P.L.<.>.7.I.T.I.U.U.I.T.U.8.;.%.$   o r N 8   . +XgXsXbXMX3X*   + . .   + % O O O ",
"      X       . 9 i t Z t r . O @       .   *.j.k.;.:.<.h.h.k.j.j.j.h.h.M m x   X   ; : k +.+.;XhXjXjXmX7X*   O     X           ",
"  O   O   O X                         f < p #.-.-.1.<.<.<.<.,.;.,.-.-.$.4         o , , +.<X,XqXgXdXbXmX5X2   .             o   ",
"                                      o.iXqX' $ 4 H.Y.L.L.L.c.,.2.v $ 3 $ O   .   l (.].{..XXXsXnXnXmXnX4X#                     ",
"                                      ~.MXvX' . = g.c.x.I.I.x.=.2.x         O     j 3X X5X9X0XsXvXfXfXkX%X#                     ",
"                                      ~.MXfX{ + % $.>.9.I.I.c.>.-.b +       O     k }. XqXvXkXfXdXgXdXdXXX,                     ",
"                                    . O.MXMX4X].'.A 4 v 7.8.#.3 x $             O 1 l l /.MXMXkXjXgXfXkXoXo   O                 ",
"                                g j j (.NXjXsXsX8Xd   4 7.9.#.@       +       .       . [ ,XoX{.{.{. X X~.2                     ",
"                                ` tX0XsXfXsX4X.X].<   i Y.P.p.  .     .   X             X @ o # + o o +                         ",
"                                ` dXfXfXfXfX5XXX XO.o. .Y J V   O   O                   ; a s p a a s a p $   O                 ",
"                                _ 5X6X4X5X4X{.'.'.'.}.~.> .             .       O .     p T E W W R R ! D . .                   ",
"                      .   .   O o z < , < < , 1 1 1 d 1                                 . > . Z R E ^ ! D .                     ",
"                        O X < 6 ; 8 p 0 0 p 0 0 ; .     O                                 # . s ^ ~ E Z Z 5 - %                 ",
"                    O     - E W W W W ~ E ~ R Q T ;         O O                   O           s ~ E V N y r u 7   . .   O       ",
"                        . % T ! R E W ^ R R u = ;                                           . p A V y N y y y y w e =     O     ",
"                      o o - H E E E H R R Q :       O                               O         : 6 e e w w w w e w w =         . ",
"                O   . e u u u y N B u Z R Q : . O   O         .                   O +                 .     .   . .     O O     ",
"                O   . = = - = = - - % ; 0 0 o     O                                 O           O   O     O O         O         ",
"                      +       O           . X       O                                                                           "
};
