/* XPM */
static char *_c2d61004c6841e390e5fc8f448c93be9BjABzbRr1jzLJCz[] = {
/* columns rows colors chars-per-pixel */
"58 100 216 2 ",
"   c None",
".  c #000000",
"X  c #090500",
"o  c #0C0902",
"O  c #0C0C0C",
"+  c #050608",
"@  c #130000",
"#  c #1A0101",
"$  c #120D00",
"%  c #190F00",
"&  c #120F0A",
"*  c #1B1200",
"=  c #151107",
"-  c #131314",
";  c #1B1B1B",
":  c #181918",
">  c #3D0001",
",  c #241900",
"<  c #2C1E01",
"1  c #231903",
"2  c #251F11",
"3  c #221C1C",
"4  c #230000",
"5  c #2D2100",
"6  c #28210E",
"7  c #342500",
"8  c #3C2B00",
"9  c #3C2701",
"0  c #2E2615",
"q  c #372E18",
"w  c #3C321C",
"e  c #242424",
"r  c #2C2B2B",
"t  c #3D3D3D",
"y  c #353536",
"u  c #460001",
"i  c #4C0001",
"p  c #570501",
"a  c #4F190A",
"s  c #650000",
"d  c #6C0001",
"f  c #7E0000",
"g  c #402F05",
"h  c #453300",
"j  c #4C3201",
"k  c #4B3704",
"l  c #543A01",
"z  c #5C3C01",
"x  c #533701",
"c  c #4A3A13",
"v  c #40351D",
"b  c #623B01",
"n  c #453B24",
"m  c #4A3738",
"M  c #712D2E",
"N  c #594200",
"B  c #664301",
"V  c #694502",
"C  c #6D4C01",
"Z  c #674904",
"A  c #764E02",
"S  c #6C5000",
"D  c #7D5202",
"F  c #7C5B00",
"G  c #755600",
"H  c #664914",
"J  c #7F6100",
"K  c #4D4024",
"L  c #524426",
"P  c #594926",
"I  c #5D4D2B",
"U  c #46433B",
"Y  c #61502D",
"T  c #644F27",
"R  c #454545",
"E  c #4B4B4C",
"W  c #584242",
"Q  c #535353",
"!  c #5C5C5C",
"~  c #565249",
"^  c #6D4B47",
"/  c #716754",
"(  c #636363",
")  c #6A6A6A",
"_  c #747474",
"`  c #7B7B7C",
"'  c #726F66",
"]  c #890808",
"[  c #950001",
"{  c #990405",
"}  c #A60001",
"|  c #BE0102",
" . c #B40000",
".. c #A61001",
"X. c #B31718",
"o. c #9C3F01",
"O. c #BC1E20",
"+. c #B53132",
"@. c #C40304",
"#. c #D50002",
"$. c #D90202",
"%. c #D70709",
"&. c #DB1502",
"*. c #DC1902",
"=. c #D61A1B",
"-. c #E40000",
";. c #ED0101",
":. c #FC0100",
">. c #FE0F0E",
",. c #F60302",
"<. c #EE1611",
"1. c #E43F01",
"2. c #DA1E20",
"3. c #CF2C2D",
"4. c #CC3A3C",
"5. c #DB3D3E",
"6. c #DE2223",
"7. c #F83B3A",
"8. c #E53939",
"9. c #845C01",
"0. c #AA4501",
"q. c #B64901",
"w. c #836100",
"e. c #8C6700",
"r. c #8E6800",
"t. c #916B00",
"y. c #9C6602",
"u. c #9F7301",
"i. c #A56C02",
"p. c #A97501",
"a. c #B97A03",
"s. c #B27503",
"d. c #CA4601",
"f. c #E64501",
"g. c #EB5F01",
"h. c #D97401",
"j. c #C27F03",
"k. c #ED6101",
"l. c #EA7901",
"z. c #F26C01",
"x. c #845E5E",
"c. c #D94345",
"v. c #C95959",
"b. c #DC5455",
"n. c #CC4142",
"m. c #F04D4C",
"M. c #DF7576",
"N. c #F57676",
"B. c #EE6F6F",
"V. c #AD8103",
"C. c #B88900",
"Z. c #C98603",
"A. c #D48B03",
"S. c #D88E03",
"D. c #C69400",
"F. c #DB9303",
"G. c #D79B02",
"H. c #F48501",
"J. c #F58D01",
"K. c #E49D02",
"L. c #DAA200",
"P. c #D7A001",
"I. c #E3A501",
"U. c #EAA501",
"Y. c #E4AB00",
"T. c #EBAC00",
"R. c #FAA600",
"E. c #FCAB00",
"W. c #F3B400",
"Q. c #FCB600",
"!. c #FEBE00",
"~. c #ECB000",
"^. c #FFC200",
"/. c #FFC800",
"(. c #8B8B8B",
"). c #838383",
"_. c #959595",
"`. c #9C9C9C",
"'. c #928989",
"]. c #A5A4A4",
"[. c #ACACAC",
"{. c #ABA4A4",
"}. c #BFA8A8",
"|. c #B4B4B4",
" X c #BCB6B6",
".X c #BCBCBC",
"XX c #D58687",
"oX c #E58C8C",
"OX c #E49B9B",
"+X c #F79A99",
"@X c #DDA9A9",
"#X c #C0B9B9",
"$X c #E3A8A9",
"%X c #F8AEAE",
"&X c #BFBFC0",
"*X c #C3C3C3",
"=X c #CCCCCC",
"-X c #D8C8C8",
";X c #D3D3D3",
":X c #DBDBDB",
">X c #D9D2D2",
",X c #CFD0D0",
"<X c #F7C7C7",
"1X c #E8D6D6",
"2X c #F6D8D8",
"3X c #E6CACA",
"4X c #DDE0E0",
"5X c #E4E4E4",
"6X c #E9E5E5",
"7X c #EAEBEB",
"8X c #E7E8E8",
"9X c #FAE2E2",
"0X c #ECF2F2",
"qX c #F5F5F5",
"wX c #F6FAFA",
"eX c #FAFAFA",
/* pixels */
"                                                  . . . . . . . . . . . . .                                         ",
"                                                  . . . . . . . . . . . . .                                         ",
"                                          . .   . Q ! ! ! ! ! ! ! ! ! ! ! Q O   . .                                 ",
"                                        . . . . + (.*X&X&X&X&X&X&X&X&X.X.X_.+ . . . .                               ",
"                                        # # # : : _..X.X.X.X.X|..X.X*X#X*X`.e : ; ; ;                               ",
"                                    . X [ | +.].].|..X.X.X.X.X.X*X5X5X5X5X:X,X=X,X,X{.O .                           ",
"                                    . X } #.n..X.X.X.X.X X.X|..X=X6X8X7X6X7X7X7X7X7X.XO .                           ",
"                                  > d d | #.n..X.X.X.X*X,X;X;X;X;X8X6X7XqX7X0X0X0X7X:X).` R                         ",
"                              . . i $.$.#.#.n.|..X.X|.=X8X7X7X8X7X8X8XqXqXeXqXqXqXqXqXeXeX) . .                     ",
"                              . . i #.#.#.#.3.}.}..X&X=X6X8X6X7X8X7X8XqXqXqXqXqXqXeXqXqXqX( . .                     ",
"                              . . i #.#.#.#.%.=.=.@X5X5X8X8X8X8X7XqXqXqXqXqXqXqXqXqXqXeXqX( . .                     ",
"                              . . i #.#.#.#.#.#.%.$X0X7X8X8X6X7X7XqXqXqXqXeXqXqXqXqXqXqXwX( . .                     ",
"                          . O Q ! x.v.v.=.#.#.#.%.b.M.OX6X8X7X0X0XqXqXeXqXqXqXqXeXqXeXqXqX[.` ' - .                 ",
"                          . O _.*X.X&X X3.#.#.#.#.#.#.c.6X6XqXqXqXqXqXqXqXqXeXqXqXqXqXqXqXeXeX,X- .                 ",
"                          . O _..X.X.X X4.=.=.#.#.#.#.c.6X6X0XqXqXqXeXqXqXqXqXqXqXeXqXqXqXeXeX=X- .                 ",
"                          . O _..X.X.X#X-X>XoX#.#.#.#.c.6X6XqXqXqXqXqXqXqXeXqXqXqXqXqXqXqXqXeX=X- .                 ",
"                          . O _..X.X.X.X4X0XOX#.#.#.#.c.8X7XqXqXqXqXeXqXqXqXqXqXqXeXqXqXqXwXeX=X- .                 ",
"                          . O _..X.X.X&X4X7XOX#.#.#.#.6.N.N.2XwXqXqXqXqXqXeXqXqXqXqXqXqXqXqXeX=X- .                 ",
"                          . O _..X.X.X.X:X0XOX#.#.#.#.-.:.:.%XwXeXqXqXqXqXqXqXqXqXqXeXqXqXqXeX=X- .                 ",
"                          . O _.#X&X.X.X4X7X@X2.=.%.$.-.,.,.+X2X9XqXqXqXeXqXeXqXqXqXqXqXqXqXeX=X- .                 ",
"                          . O _..X.X.X.X:X7X5X3X3X7.:.;.$.$.<.>.m.9XeXqXqXqXqXqXeXqXqXqXqXwXeX=X- .                 ",
"                          . O _.&X.X.X&X4X8X8X7X6X7.:.,.$.%.,.:.m.qXeXqXqXqXqXqXqXqXeXqXqXqXqX=X- .                 ",
"                          . O _.&X`.! ( =X7X5X;X,XoXN.v.d d @.;.8.>X:X7XqXqX0XqX0X0X0X0X7XqXeX=X- .                 ",
"                          . O _.*X_ . + |.7X;X.X.X:X0X[.. . [ $.3. X#X5XqXqX6X6X6X7X6X6X6XqXeX=X- .                 ",
"                          . O ).[._ ; e |.7X:X.X.X=X=X`.e 3 ] | +.{.].;XqX7X7X7X5X5X5X7X7X:X:X.X- .                 ",
"                          . . - - Q =X,X5X7X:X.X|.R : Q :X5XW # # - : (.*X=XqXqX;X&X=X0XqX_ : ;                     ",
"                          . . . . Q 7X7X7X7X:X.X|.r . E eXeXE . . . . ).&X=XqXqX,X X*XqXeX( . .                     ",
"                          . . . . Q 8X8X;X,X,X;X=Xy . E eXeX].).! + . t ! _ ;X:X;X;X:X7XqX! . .                     ",
"                              . . Q 7X8X*X.X=X6X6Xt . E eXeXeXeX*X+ . . . e |..X;X7X7X7X7X! . .                     ",
"                              . . Q =X=X[.]..X7X5Xm @ W 9X9X9X9X}.: : : : t .X&X:X7X5X=X=X! . .                     ",
"                                    ; ; : - ! 6X5X4.| @.2.=.6.=.n.].].].].|.7X7XqXqX=Xr :                           ",
"                                    . . . . E 7X6X5.#.#.#.#.#.#.3. X.X.X.X=XqXeXqXeX*XO .                           ",
"                                    . . . . e _ _ O.$.#.#.#.b.M.XX.X.X,X:X4XqXqXqXeX*XO .                           ",
"                                    . . . . . . X { $.#.#.#.$X7X:X.X.X5XqXqXqXqXwXeX=XO .                           ",
"                                    . . : ; : ; 3 { | | | | @X8X1X*X*X6XeXqXwXqX6X:X[.O .                           ",
"                          . . . . . . + [.:X:X:X;Xm @ # # # {.7X7X0X0XqXqXqXqXqX) ; : . . . . .                     ",
"                          . . . . . . O *XeXeXeX0Xt . . . . ].qX7XeXeXeXeXeXeXeX! . . . . . . .                     ",
"                        9 V V G w.x . O #XeXqXqXqX`.` ` ` ` _ _ _ ` ` ` ` ` ` ` M d d d d ^ _ ) - .                 ",
"                    . . l S.A.Q./.V.. O &XeXqXeXqXqXeXwXeXqXR . . . . . . . . . ] $.$.$.$.oX0X*X- .                 ",
"                    . . j a.a.U.Q.p.* 1 [.:X5XqXqXqXqXqXqX0X! - : : : ; ; : : : { $.$.$.$.M.1X}.O .                 ",
"                    . . o * , s.S.G.L.L.c : ( qXqXeXqXqXqXqX.X].].].].=X:X,X].].5.:.:.:.:.<.=.X.@ .                 ",
"                    . . . . X p.A.K.!.W.8 . Q qXqXqXqXqXqXqX=X.X.X.X.X5XeX7X&X.Xc.:.:.:.:.-.$. .X .                 ",
"            . .   O Q ! ! ! ! H B u.!.W.8 . R :X:X8X0X0X0X0X1X:X:X:X:X:X:X;X,X;X+XN.B.:.:.} d p X .                 ",
"          . . . . O ].*X&X&X|.e . N !.W.8 . t |..X:X7X8X8X8XqXqXqXqXqX=X.X*X8X8XqXeX<X>.:.s . . . .                 ",
"          * * * * 6 (.].[..X|.e . N Q.T.7 . t .X.X1X7X8X8X8XqXqXqXqXqX=X.X*X6X8X0XwX<X>.:.d . . . .                 ",
"      . * D.Y.Y.L.G.q - ! .X|.e . k A.A.7 . t .X.X:X7X8X8X6X0XqXqXqXqX,X.X*X6X8X0XwX<X>.:.s . . . .                 ",
"      . * L.!.!.!.~., . R &X|.e . j S.Z.< . t .X.X:X7X6X8X7XqXqXqXqXqX=X.X*X6X7XqXwX<X>.:.s . . . .                 ",
"      . * L.!.W.U.F.9.V T ! ! ' _ / V V ~ ! ` .X.X=X,X:X8X6X0X7XqXqXqX=X.X*X8X8X7XqX#X] ] ^ _ ( O .                 ",
"      . * P.^.U.Z.A.A.A.D . O .XqX_.. + _.*X.X.X.X.X.X*X8X8X8X8X7XqXqX=X.X*X8X8X7X7X|.O . (.qX*X- .                 ",
"      . * P.!.U.Z.A.A.A.D . O .X7X_.. + ` ].[..X.X.X X=X5X5X5X5X6X0X0X,X&X*X5X6X5X7X|.O . (.7X*XO .                 ",
"      . * P.^.U.A.A.A.A.D . O .X0X_.. . - - E .X.X.X.X.X*X&X&X&X*X*X&X:X6X:X*X#X&X*X`.O . (.7X*X- .                 ",
"      . * L.!.U.A.Z.A.A.D . O .XqX_.. . . . t .X.X&X.X.X|..X.X.X X.X.X:X7X:X.X.X.X.X_.O . (.qX*XO .                 ",
"      . % Z.U.F.A.Z.A V V V Z ' _ !     .   r ! ! ! ! ` ;X;X&X.X*X;X;X6X0X5X.X.X=X:X[.O . (.7X;X` _ R               ",
"      . $ s.A.A.A.j., . x S.Z., . .           . . + . R 5X6X=X.X*X8X7X0XqX7X.X.X5XeX=XO . (.7X7X7XqX) . .           ",
"      . $ y.a.a.a.i.7 $ x a.s., . .           . . . . R 5X8X=X|.*X8X8XqXqX7X.X.X4XeX*XO . ` ;X=X=X,X! . .           ",
"          * * * % , y.j.A % $ X . .               . . R 5X6X*X.X=X6X7X7XqX7X.X.X5XeX*X- . - ; : ; ; O . .           ",
"          . . . . $ s.S.9.. . . . .               . . R 7X7X=X.X=X8X7XqXeX7X*X.X5XeX=XO . . . . . . . . .           ",
"      . . . . . . X l V 9 . . . .                 . . e _ _ ( ! ( _ _ ` ` _ ! ! _ ` ( + . . . % b V < . .           ",
"      . . . . . . . . . . . .                     . . . . . . . . . . . . . . . . . . . . . . , Z.S.z . .           ",
"    % % % * * X . . % * o . .                     % % % * % % * * % * % * % * * % * % * * X . * p.a.z o $           ",
". . z a.a.a.a.B . X y.j.C . .                 . X 9.a.a.a.a.a.a.a.a.a.a.a.a.a.a.a.a.a.a.a.j . . % % x F S o .       ",
". . B A.A.A.A.A . $ s.F.9.. .                 . X y.S.S.A.A.A.A.A.A.A.A.A.A.A.A.A.A.A.A.S.l . . . . k r.G o .       ",
". . C U.I.A.A.A . X l V 9 . .                 . X j V V V V V V V V V V V V V V V V V V V < . o h h S t.w.k h 5   . ",
". . F ^.Q.F.A.A . . . . . . .                 . . . . . . . . . . . . . . . . . . . . . . . . * w.r.r.r.e.r.t.h . . ",
". . S Y.L.Z.a.C o o $ o $ $ $                 # # # # # # # * , % # # % * % . . X X X X X . . * F r.e.e.e.e.r.h . . ",
". . o * * * $ h J F F F F F G * . .     . . u | | | | | | | h.Y.A.| @.h.Y.V.o . , 7 7 7 7 * . * 9.e.e.e.e.e.e.h . . ",
". . . . . . . 9 r.r.e.r.r.r.w.* . .     . . u $.#.#.$.#.#.$.H.^.J.$.#.H.^.D.o . 5 8 8 8 8 * . * w.r.e.e.e.e.e.h . . ",
". . , h h h h Z r.e.e.e.e.e.w.* . .     . . i #.$.f.k.f.#.#.H.^.J.#.#.0.w.S * * 5 8 8 * * ~ ` ' c h S r.e.e.e.h . . ",
". . h t.r.t.r.r.e.e.e.e.r.r.w.* . .     . . u #.$.J.^.H.$.#.J.^.J.$.#.u . o 8 8 8 8 7 . . _.eX;X- . x t.e.r.t.h . . ",
". . h F F F F w.e.e.e.e.w.F G * . .     * * p #.%.J.^.J.*.*.J.^.J.%.#.u . o 8 8 8 7 7 ; : `.eX=X- . h F G F F 8 . . ",
"    o $ o $ o k r.e.r.r.N $ $       . o C.Y.h.$.%.J.^.Q.R.R.Q.^.J.$.$.u . o 7 9 * . r &X=X6XwX=X- . o o o $ $ $     ",
"      . . . . 8 t.r.r.t.l . .       . o D./.H.$.$.J.^.!.^.^.^.^.J.$.$.u . o 8 h $ . r 4X7XqXeX=X- . . . . . .       ",
"      . . .   5 h h h k 7           . X q.k.1.#.$.f.g.g.g.g.g.k.d.d d 4 . X * * U ! ` 4X6X0XeX=X- . .   . . .       ",
"                . . . . .           . X } $.$.$.#.#.#.$.$.#.$.$.} . . . . . . . ` &X*X5X6X0XeX=X- .                 ",
"                . . . . .           ; 3 { @.@.&.*.&.&.&.$.#.@.@.[ . . . . + : : x.*X*X6X7XqXeX=X- .                 ",
"                              . . Q :X,Xm @ b R.E.E.E.l.$.#.i # #     . . e `.].|.*X=X0XqXqXeX=X- .                 ",
"                              . . ! wX7Xy . l Q.^.!.^.H.#.#.> . .     . . r |..X&X|.*XwXeXqXeX-X- .                 ",
"                              . . ! qX7Xt . j g.k.R.^.H.$.#.> . .     . . r |..X,X:X4X0X7X0XqX*X- .                 ",
"                              . . ! eX7Xy . u #.#.J.^.J.$.#.> . .     . . r |..X5XwX0X8X8X8X7X*X- .                 ",
"                              . . ! eX7XE : a | @.l.E.l.| | > . .     . . r ].].;XwXqX8X8X8X7X*XO .                 ",
"                              . . Q qXqX:X,X'.# 4 ..*...4 #                 : : ].eXqX7X7X8X7X&X- .                 ",
"                              . . ! qXqX7X0X`.. X { $.[ X .                 . . `.eXqX7X7X7X0X*X- .                 ",
"                          . O ) _ ].qX7X:X;X(.. X 0.k.0.X .                 . . E ` ` _ _ _ _ ( + .                 ",
"                          . O .X7X7X8X6X*X&X` . X C./.C.. .                 . . . . . . . . . . . .                 ",
"                          . O .X7X8X7X6X*X.X(.: : V.Y.u.. .                 . . o o O + o o o o . .                 ",
"                          . O .X7X8X7X6X*X.X|.].].n * * . .                 . . q L L K L L L n X .                 ",
"                          . O .X7X7X0X7X=X.X.X*X|.y . . . .                 . . w Y Y I I I Y K + .                 ",
"                          . O ! _ _ _ _ ( ! ! ! ! e   . . .                   . 2 0 q I I I I K X .                 ",
"                          . . . . . . . . . . . .       . .                     . . & L I Y Y L X .                 ",
"                          o O o O o o o O o X . .       . .                     . . & I I P P K o X X               ",
"                    . . 2 L L L L L L L L L q . .                               . . & P Y c 8 8 7 7 * . .           ",
"                    . . 2 I I I I I Y I I Y v . .                               . . & L I c 8 8 8 8 * . .           ",
"                    . . 2 I I I I I I I w 0 2 .                                 . . O c c g 8 8 8 8 5 * * X .       ",
"                    . . 2 Y I I I I I P = . .                                   . . o 8 8 8 8 8 8 8 8 8 7 X .       ",
"                    X + 2 P I P P P I I - . .                                   . . X 7 7 7 7 7 7 7 7 7 5 X . .     ",
"                . X < 7 8 g g g 8 c I P & . .                                   . . . X X X X X X o X . X . . . . . ",
"                . X 7 8 8 8 8 8 8 c Y P & . .                                   . . . . . . . . . . . . . . . . . . ",
"                . . * * * , , * * 1 0 0 O . .                                     . . . . . . . . . . . . . . . . . ",
"                . . . . . . . . . . . . . . .                                                                       ",
"                . . . . . . . . . . . . . . .                                                                       "
};
