/* XPM */
static char *_8e2a857cbb74d3bbd0c0a3658627f00QE87VXVMRuIVLHQX[] = {
/* columns rows colors chars-per-pixel */
"64 64 51 1 ",
"  c #150C0C",
". c #1E1313",
"X c #151913",
"o c #181914",
"O c #1C1E19",
"+ c #201414",
"@ c #251B1B",
"# c #291E1E",
"$ c #321E1E",
"% c #1E211C",
"& c #21231E",
"* c #29201F",
"= c #232521",
"- c #2C2222",
"; c #262924",
": c #292A25",
"> c #342424",
", c #382727",
"< c #372827",
"1 c #372928",
"2 c #3C2B2B",
"3 c #402E2E",
"4 c #403E3E",
"5 c #483838",
"6 c #464444",
"7 c #484545",
"8 c #4C4A4A",
"9 c #534E4E",
"0 c #545454",
"q c #595757",
"w c #5D5C5C",
"e c #5F6060",
"r c #646464",
"t c #696666",
"y c #676868",
"u c #6D6B6B",
"i c #706E6E",
"p c #757474",
"a c #787676",
"s c #777878",
"d c #7C7C7C",
"f c #828282",
"g c #8B8686",
"h c #8E8D8D",
"j c #908F8F",
"k c #8F908F",
"l c #90908F",
"z c #959393",
"x c #989696",
"c c #9D9D9D",
"v c #A1A2A2",
/* pixels */
"vz32pdwrcvvvvvvvvvfi11psercvvvvvvvvvvvvvvvvvvvvvvvvvvvfi22psercv",
"vz2<uaryxvcvvvvvvcgs21iseyxvcvvvvvvcvvvvvcvvvvcvvvvvvcgp11iprtxv",
"fp;&0rasffffffffffcj;&qradffffffffffffffffffffffffffffck:&0rpdff",
"di;&wydddddddddfdfch;&0esddddddffddddddddddddddddddddfcj:%wydddd",
"dp22hxfdfdddddddddfs=O0esdddfddddddsdddddddfdddddfdddffp&;hcfddd",
"dp,2zcffddddsssdddsu&Oqydfddddssssssddssddssddfdssddddfi&;kcffdd",
"fi--agccfdds0090ssq8@-udccfddsq9009qssqqdsq0sdds00sdddfi#*agccfd",
"it##rakkappu8678uu84@@ypjjaipy866688uu88uu88uppu88ipppit##rpjzpp",
"##++**->2222>>>>22@@..#----##->>>1,>==O&11&&11;=>>2231-#..&=2222",
"-**#+.#*><23333322--1----@..@->12222;;;;22:;22;:,2$$>>@@-:;:2333",
"iiit##riqwhzzzzzjxzzzjzjsr##yiqwhxxxzzzzzzzzzzzkat,,9q0wjzzzzxxx",
"dfdp*#isetxvvcvvvvvvvvvcgp-#isryxvvvcvvvvvvvvvvcga2>qweyxvvcvcvv",
"ddfp2>qradffffffffffffffcj21qrssffffffffffffffffcj3,0esdfffgffff",
"ddfi2,wtadddddfddfdddddfcj21qysdddddddddddfddddfcz2>wysddddddddd",
"dddp22jxfdddddddddddddddfs=;hcfdddfdddddddddddddfp-:hxfddddddfdd",
"ddfi22zvfddfddddddddfdddsu&;zvfdddddfddddddddddfdi=;zvfddddddddd",
"dddi=:zvfdddddddddddddds08O;zvfddddddddddddddddddi=;zvfddddddddd",
"ddfi=;jcffddfdsaddssssds08O;kcffddfdssssddsssaddfi=;kcffddssddfd",
"fdfi#*pgccfsdaqqssq99qsdsu@-sgccfddsq99qssq99qsfdp=#pgccfsqqsfdd",
"ipit##rpjjappi88ii8668iapy@@rphjappu8678uu8768uiir##tpjjpu88upii",
"22-#..O@--2222>,,2>>>,21-#  .@--12,2>>>>22,>>>22-#++**--##>>1121",
"22--*#  ##>,233233332322:-@.  @-,,22333323323332----**..#->,3333",
"xxzjpr@#tiqwhzzzxxzzzzxxzhpr..yiqwjxzxzzzzxxzzzjxzzkpr##tiwwjxxz",
"vvvcgp--iaryxvvvvcvcvvvvvcgp@Ousryxvvcvvvvvvvvvvvcvcgp**tietxvvc",
"ffffcj2>qeasffffffffffffffvj21qeasfffffffffffdffffffck;.#1udffff",
"dddfcj32wydddddddddddddddfcj21wydddddddsddddddddsddfck;o-1pdddds",
"dddffa22jxfdddddddddddddddfp=;hxfddddddddddddddddddffp&;fkfddfdd",
"dddddp,2jcfffdssssssssssssdi&;jvffddddasddssddsassssdi&=kvffdddd",
"fdddfi--agvcfsq9999990900qsp&=afccfdfsqqssqqssq99990sp--pgvcfdfd",
"pipiit##rajzau876666666668uy&&yajjsppy88iu88uu866668ur@#rpjzsiii",
"2222-#.@#-232,,>@@@@.@->>>--.+--232222>>22,,2,@@@@@O-#.@#-332222",
"2332>-----232332-#++#-,,22------23332232232322-@..##@@----232322",
"zzzzzzzzzzzzzzzzar#@yiqwhxzzzzzzxxzxzxzxzzxxxjsr##yuqwhzzzzzxzzx",
"vvvvcvvvcvvvvvvcga*;iseyxvvvvvcvvvvccvvcvcvcvcgp-@usryxvvcvcvvcv",
"ffffffffffffffffck;%0esddfdfdffffffffdffffffffcj;Oqrssffffffffff",
"dddddddddddddddfck;%wyddddddddddsdddddddddddsfcj;Owyddsdsdddsddd",
"ddddddddfddddfddfp&;hxddddddddddddddddddddddddfp=;hcdddddddddddd",
"ddssssssddddssdddi=;kcgdfdddppssdfddaaasddssssdi&;hcffddddddddfd",
"dsq0890qaddsq0sddp11sgcvvcfd009qsddsq99qss009qsp--pgccfddddddddd",
"pu866668upii88upiy22ypkxxksu8667upiu8688uu8668uy@*rpzhsipapipipp",
"21%%%%O@**##>,22&&>$222322;&%%@@#-#->>>,22&O1-==++#-22222222,2,2",
"22;;=;*#++#*,,32::22233332::;;**++@->12322::22;;--->2,>$,,,,3333",
"zzzzzhar*#tiqwhzxxzxzxxxzzzzzksr#@ruqwhxxzzzzzzzzzzjat12uiqwhzzz",
"vvvvvcgp**isrtxvvcvcvvcvvvccccgp--pfyucvvcvvvvccvvvvfa11iartxvvv",
"ffffffcz2>qradffdffffdffffffffck;=hcccfffffffdffffffcj;&qradffdf",
"dddddfcl3,wtdddddddddddddddddfck;;hcccfddsddddddsddfcj;&wysddddd",
"ddddddfa23kxdddfddddddddddddddfp&%wydfdsdddddddfddddfp=;hxdddddd",
"dddfddsp23lcffddddssddasssssssdi=&0ydfdddddfdddddddddi=:jcgfdddd",
"fddddfdp22sgccfddaq0ss00990000sp,,idccfdfddddddddddddp22pfccdddd",
"ppipippy,,tsklpppi88ii76666668uu,3tajjaiiipippiipiippt,,tszjapip",
"22=&==12$$22;;222,>>,,&O%%->1122$$,,33,32,2211==&&==,2>>22333,3,",
"22:;::223332;;2,>$,2,>:;;:2233223333333,>$21,2::;;;;->2233323333",
"xzzzzzcxzczczlsu,,tpqwkxzzcxxxcxxxxxxzau,,tiqwhzzzxg22gxxzzzzzzz",
"vvccvvvvvvvvvvfp22pseycvvvvvvvvvvvvvvvga55afyucvvvvz22zvccvvcvvv",
"fdyucvvvvvvvvcfp22psercvvvvvvvvvvvvvvvvcxzvcccvvvvfs22sdttdffdff",
"saryxvvvvvcvvcgp21upryxcvvvvvvvvvvvvvcvcvvvvvcvcvvfs21isrtaddddd",
"erssffffgfffffcl;&qrpsfffdffffffgfffdfffffffffffffch;&0yaasddddd",
"rtaddddddddddfcl=%0esdddddddsddddddddddsddsddsdddfch;%wysdssssdf",
"cxfddddddddfddfa=%0esddddddddddddddfddddddfddddfddfs=;hxfaq990pd",
"ccfffdddassaddsu=@qrdfdfddssssssddaaddaaddddssdddddi&;kcfdq99qsd",
"fgccfdda009qdsq8@#udccfdds000990ss00ssq0sddsqqsddddp#*sfccdasssd",
"ppkkappi8778uu84@#tpjjaipu866668uu88iu88upiu88uipiiy##rsjjaipppp",
"##-:,2221>>,,,#@..##--*#*->><>>>;=O=11%&,1=&>>2222-#++&=33222,12",
"+.++$$$$$$$$$$............$$$$$#XXX.$#oo$-o.-$$$$-+...X.$$$$$$->"
};
